<svg width="880" height="192" viewBox="0 0 880 192" fill="none" xmlns="http://www.w3.org/2000/svg"
  xmlns:xlink="http://www.w3.org/1999/xlink">
  <style>
    .Pacman_Boca_Aberta_26 {
      animation: 2.6s linear 0s infinite normal forwards running Pacman_Boca_Aberta_26;
      transform: translateX(390px) translateY(130px) rotate(0deg);
    }

    @keyframes Pacman_Boca_Aberta_26 {
      0% {
        transform: translateX(430px) translateY(130px) rotate(0deg);
      }

      5.10% {
        transform: translateX(510px) translateY(130px) rotate(0deg);
      }

      10.10% {
        transform: translateX(510px) translateY(110px) rotate(-90deg);
      }

      15.10% {
        transform: translateX(470px) translateY(110px) rotate(-180deg);
      }

      20.10% {
        transform: translateX(440px) translateY(60px) rotate(-90deg);
      }

      25.10% {
        transform: translateX(470px) translateY(60px) rotate(-180deg);
      }

      30.10% {
        transform: translateX(340px) translateY(60px) rotate(-180deg);
      }

      35.10% {
        transform: translateX(320px) translateY(60px) rotate(-90deg);
      }

      40.10% {
        transform: translateX(320px) translateY(40px) rotate(-90deg);
      }

      45.10% {
        transform: translateX(220px) translateY(40px) rotate(-180deg);
      }

      50.10% {
        transform: translateX(350px) translateY(40px) rotate(180deg);
      }

      55.10% {
        transform: translateX(350px) translateY(40px) rotate(90deg);
      }

      60.10% {
        transform: translateX(480px) translateY(60px) rotate(180deg);
      }

      65.10% {
        transform: translateX(480px) translateY(82px) rotate(90deg);
      }

      70.10% {
        transform: translateX(550px) translateY(110px) rotate(180deg);
      }

      85.10% {
        transform: translateX(550px) translateY(130px) rotate(90deg);
      }

      90.10% {
        transform: translateX(400px) translateY(160px) rotate(-180deg);
      }

      100% {
        transform: translateX(410px) translateY(140px) rotate(0deg);
      }
    }
  </style>
  <g clip-path="url(#clip_0_287)" width="880" height="192" data-name="PACMAN (Frame 01)">
    <g transform="translate(10 7)" width="861" height="175" data-name="Grid e commits">
      <path
        d="M775 7L846 7.5C847.833 7.33333 851.5 8 851.5 12V44.5C851.667 45.8333 850.9 48.5 846.5 48.5H805.5C803.833 49.6667 801.5 52.8 805.5 56H847.5C848.833 56 851.5 56.6 851.5 59V116.5C851.5 117.667 850.5 120 846.5 120H814.5C813.167 119.667 810.5 118.5 810.5 116.5V98C809.333 96.5 806.2 94.4 803 98V116.5C802.667 117.667 801.4 120 799 120H758C756.333 121.167 754 124.3 758 127.5H846.5C848.167 127.5 851.5 128.2 851.5 131V164C851.5 165.167 850.5 167.5 846.5 167.5H650.5C649.167 167.667 646.5 167.1 646.5 163.5V121.5C645.5 120 642.6 117.9 639 121.5V163.5C639 165 638.1 167.9 634.5 167.5H555C553.667 167.5 551 166.7 551 163.5V130C551.167 129 552.2 127 555 127H597C597.667 127 599 126.5 599 124.5V50C597.875 48.3333 594.763 46 591.312 50C591.463 54.4 591.5 64.1667 591.5 68.5C591.333 69.8333 590.3 72.5 587.5 72.5C584.7 72.5 564.667 72.1667 555 72C553.667 72.1667 551 71.5 551 67.5V50.5C550 49.1667 547.2 47.3 544 50.5V68.5C544.167 69.8333 543.5 72.5 539.5 72.5H474.5C472.833 73.5 470.5 76.3 474.5 79.5H587.5C588.833 79.8333 591.5 81 591.5 83V116C591.5 117.333 590.7 120 587.5 120H546C545.333 120 544 120.6 544 123V163.5C544 164.833 543.2 167.5 540 167.5H222.5C221 167.667 218 167 218 163V130C218.167 129 219 127 221 127H311C312.5 125.833 314.6 122.8 311 120H269.5C268.167 120.167 265.5 119.6 265.5 116V59C265.5 57.8333 266.2 55.5 269 55.5H302.5C303.667 55.6667 306 56.6 306 59V76.5C305.833 77.5 306.2 79.5 309 79.5H383C383.5 79.5 384.5 79.2 384.5 78V73.5C384.333 73 383.5 72 381.5 72H317C315.667 72.1667 313 71.6 313 68V50C312.833 49.5 312.1 48.5 310.5 48.5H260C259.5 48.5 258.5 49.1 258.5 51.5C258.5 53.9 258.167 95.5 258 116C258.167 117.333 257.6 120 254 120H212C211.5 119.833 210.5 120.2 210.5 123V163C210.667 164.5 210 167.5 206 167.5H13C11.6667 167.5 9 166.7 9 163.5V59C9.16667 58 10.2 56 13 56H55C55.6667 56 57 55.6 57 54V49.5C56.8333 49 55.8 48.1 53 48.5H13C11.6667 48.5 9 47.5 9 43.5V11C9.33333 9.5 10.5 6.6 12.5 7C14.5 7.4 83.6667 7.16667 118 7H373C374.5 7.33333 377.5 8.4 377.5 10V27.5C377.5 28.6667 378.1 31 380.5 31H477.5C478.333 30.8333 480 29.9 480 27.5V10C480.167 9 481 7 483 7H775.5M764 50.5V78C764 78.5 763.4 79.5 761 79.5H711.5C710 78.3333 707.9 75.3 711.5 72.5H753C754.333 72.1667 757 70.8 757 68V50.5C758.167 49 761.2 46.9 764 50.5ZM421 120H356C354.5 121.167 352.4 124.2 356 127H501.75C503.167 125.667 505.15 122.4 501.75 120H436C434.667 120 432 119.2 432 116V73.8125C431 72.4167 428.2 70.4625 425 73.8125V116C425 117.333 424.2 120 421 120ZM5 176H858C860.209 176 862 174.209 862 172V5C862 2.79086 860.209 1 858 1H5C2.79086 1 1 2.79086 1 5V172C1 174.209 2.79086 176 5 176ZM56.5 116.5V98C55.5 96.5 52.7 94.4 49.5 98V123.5C49.5 124.667 50 127 52 127H103C103.333 126.833 104 126.2 104 125V121.5C103.833 121 102.8 120 100 120H60.5C59.1667 120 56.5 119.3 56.5 116.5ZM97 50V76.5C97 77.5 97.4 79.5 99 79.5H150C150.667 79.3333 152 78.7 152 77.5V74C152 73.3333 151.2 72 148 72H108C106.667 72.1667 104 71.6 104 68V50C102.833 48.5 99.8 46.4 97 50Z"
        stroke="#0033FF" stroke-width="2" data-name="Vector" />
      <rect width="12" height="12" rx="2" fill="#309F4D" data-name="Commit - Medium" transform="translate(160 92)" />
      <rect width="12" height="12" rx="2" fill="#309F4D" data-name="Commit - Medium" transform="translate(184 92)" />
      <rect width="12" height="12" rx="2" fill="#309F4D" data-name="Commit - Medium" transform="translate(208 92)" />
      <rect width="12" height="12" rx="2" fill="#309F4D" data-name="Commit - Medium" transform="translate(184 116)" />
      <rect width="12" height="12" rx="2" fill="#309F4D" data-name="Commit - Medium" transform="translate(112 116)" />
      <rect width="12" height="12" rx="2" fill="#309F4D" data-name="Commit - Medium" transform="translate(16 70)" />
      <rect width="12" height="12" rx="2" fill="#9BE9A8" data-name="Commit - Small" transform="translate(184 140)" />
      <rect width="12" height="12" rx="2" fill="#9BE9A8" data-name="Commit - Small" transform="translate(232 92)" />
      <rect width="12" height="12" rx="2" fill="#9BE9A8" data-name="Commit - Small" transform="translate(160 140)" />
      <rect width="12" height="12" rx="2" fill="#9BE9A8" data-name="Commit - Small" transform="translate(160 116)" />
      <rect width="12" height="12" rx="2" fill="#9BE9A8" data-name="Commit - Small" transform="translate(64 70)" />
      <rect width="12" height="12" rx="2" fill="#9BE9A8" data-name="Commit - Small" transform="translate(40 70)" />
      <rect width="12" height="12" rx="2" fill="#9BE9A8" data-name="Commit - Small" transform="translate(136 116)" />
      <rect width="12" height="12" rx="2" fill="#9BE9A8" data-name="Commit - Small" transform="translate(64 92)" />
      <rect width="12" height="12" rx="2" fill="#EBEDF0" data-name="Commit - None" transform="translate(232 70)" />
      <rect width="12" height="12" rx="2" fill="#EBEDF0" data-name="Commit - None" transform="translate(208 70)" />
      <rect width="12" height="12" rx="2" fill="#EBEDF0" data-name="Commit - None" transform="translate(184 70)" />
      <rect width="12" height="12" rx="2" fill="#EBEDF0" data-name="Commit - None" transform="translate(160 70)" />
      <rect width="12" height="12" rx="2" fill="#309F4D" data-name="Commit - Medium" transform="translate(160 48)" />
      <rect width="12" height="12" rx="2" fill="#9BE9A8" data-name="Commit - None" transform="translate(184 48)" />
      <rect width="12" height="12" rx="2" fill="#9BE9A8" data-name="Commit - None" transform="translate(208 48)" />
      <rect width="12" height="12" rx="2" fill="#EBEDF0" data-name="Commit - None" transform="translate(232 48)" />
      <rect width="12" height="12" rx="2" fill="#EBEDF0" data-name="Commit - None" transform="translate(136 48)" />
      <rect width="12" height="12" rx="2" fill="#EBEDF0" data-name="Commit - None" transform="translate(112 48)" />
      <rect width="12" height="12" rx="2" fill="#EBEDF0" data-name="Commit - None" transform="translate(64 48)" />
      <rect width="12" height="12" rx="2" fill="#EBEDF0" data-name="Commit - None" transform="translate(64 26)" />
      <rect width="12" height="12" rx="2" fill="#EBEDF0" data-name="Commit - None" transform="translate(40 26)" />
      <rect width="12" height="12" rx="2" fill="#EBEDF0" data-name="Commit - None" transform="translate(16 26)" />
      <rect width="12" height="12" rx="2" fill="#EBEDF0" data-name="Commit - None" transform="translate(88 26)" />
      <rect width="12" height="12" rx="2" fill="#EBEDF0" data-name="Commit - None" transform="translate(112 26)" />
      <rect width="12" height="12" rx="2" fill="#EBEDF0" data-name="Commit - None" transform="translate(136 26)" />
      <rect width="12" height="12" rx="2" fill="#216E39" data-name="Commit - None" transform="translate(160 26)" />
      <rect width="12" height="12" rx="2" fill="#216E39" data-name="Commit - None" transform="translate(184 26)" />
      <rect width="12" height="12" rx="2" fill="#EBEDF0" data-name="Commit - None" transform="translate(208 26)" />
      <rect width="12" height="12" rx="2" fill="#EBEDF0" data-name="Commit - None" transform="translate(232 26)" />
      <rect width="12" height="12" rx="2" fill="#EBEDF0" data-name="Commit - None" transform="translate(256 26)" />
      <rect width="12" height="12" rx="2" fill="#EBEDF0" data-name="Commit - None" transform="translate(280 26)" />
      <rect width="12" height="12" rx="2" fill="#EBEDF0" data-name="Commit - None" transform="translate(304 26)" />
      <rect width="12" height="12" rx="2" fill="#EBEDF0" data-name="Commit - None" transform="translate(88 139)" />
      <rect width="12" height="12" rx="2" fill="#EBEDF0" data-name="Commit - None" transform="translate(64 139)" />
      <rect width="12" height="12" rx="2" fill="#EBEDF0" data-name="Commit - None" transform="translate(40 139)" />
      <rect width="12" height="12" rx="2" fill="#EBEDF0" data-name="Commit - None" transform="translate(16 139)" />
      <rect width="12" height="12" rx="2" fill="#EBEDF0" data-name="Commit - None" transform="translate(16 116)" />
      <rect width="12" height="12" rx="2" fill="#EBEDF0" data-name="Commit - None" transform="translate(16 92)" />
      <rect width="12" height="12" rx="2" fill="#EBEDF0" data-name="Commit - None" transform="translate(328 26)" />
      <rect width="12" height="12" rx="2" fill="#EBEDF0" data-name="Commit - None" transform="translate(328 48)" />
      <rect width="12" height="12" rx="2" fill="#EBEDF0" data-name="Commit - None" transform="translate(352 48)" />
      <rect width="12" height="12" rx="2" fill="#EBEDF0" data-name="Commit - None" transform="translate(352 26)" />
      <rect width="12" height="12" rx="2" fill="#EBEDF0" data-name="Commit - None" transform="translate(376 48)" />
      <rect width="12" height="12" rx="2" fill="#EBEDF0" data-name="Commit - None" transform="translate(400 48)" />
      <rect width="12" height="12" rx="2" fill="#EBEDF0" data-name="Commit - None" transform="translate(424 48)" />
      <rect width="12" height="12" rx="2" fill="#EBEDF0" data-name="Commit - None" transform="translate(448 48)" />
      <rect width="12" height="12" rx="2" fill="#EBEDF0" data-name="Commit - None" transform="translate(448 70)" />
      <rect width="12" height="12" rx="2" fill="#EBEDF0" data-name="Commit - None" transform="translate(448 92)" />
      <rect width="12" height="12" rx="2" fill="#EBEDF0" data-name="Commit - None" transform="translate(472 92)" />
      <rect width="12" height="12" rx="2" fill="#EBEDF0" data-name="Commit - None" transform="translate(496 92)" />
      <rect width="12" height="12" rx="2" fill="#EBEDF0" data-name="Commit - None" transform="translate(520 92)" />
      <rect width="12" height="12" rx="2" fill="#EBEDF0" data-name="Commit - None" transform="translate(544 92)" />
      <rect width="12" height="12" rx="2" fill="#EBEDF0" data-name="Commit - None" transform="translate(520 116)" />
      <rect width="12" height="12" rx="2" fill="#EBEDF0" data-name="Commit - None" transform="translate(520 140)" />
      <rect width="12" height="12" rx="2" fill="#EBEDF0" data-name="Commit - None" transform="translate(496 139)" />
      <rect width="12" height="12" rx="2" fill="#EBEDF0" data-name="Commit - None" transform="translate(472 139)" />
      <rect width="12" height="12" rx="2" fill="#EBEDF0" data-name="Commit - None" transform="translate(448 139)" />
      <rect width="12" height="12" rx="2" fill="#EBEDF0" data-name="Commit - None" transform="translate(568 92)" />
      <rect width="12" height="12" rx="2" fill="#EBEDF0" data-name="Commit - None" transform="translate(400 70)" />
      <rect width="12" height="12" rx="2" fill="#EBEDF0" data-name="Commit - None" transform="translate(400 92)" />
      <rect width="12" height="12" rx="2" fill="#EBEDF0" data-name="Commit - None" transform="translate(376 92)" />
      <rect width="12" height="12" rx="2" fill="#EBEDF0" data-name="Commit - None" transform="translate(352 92)" />
      <rect width="12" height="12" rx="2" fill="#309F4D" data-name="Commit - None" transform="translate(328 92)" />
      <rect width="12" height="12" rx="2" fill="#EBEDF0" data-name="Commit - None" transform="translate(304 92)" />
      <rect width="12" height="12" rx="2" fill="#EBEDF0" data-name="Commit - None" transform="translate(280 92)" />
      <rect width="12" height="12" rx="2" fill="#309F4D" data-name="Commit - None" transform="translate(328 116)" />
      <rect width="12" height="12" rx="2" fill="#309F4D" data-name="Commit - None" transform="translate(328 140)" />
      <rect width="12" height="12" rx="2" fill="#EBEDF0" data-name="Commit - None" transform="translate(352 140)" />
      <rect width="12" height="12" rx="2" fill="#EBEDF0" data-name="Commit - None" transform="translate(376 140)" />
      <rect width="12" height="12" rx="2" fill="#EBEDF0" data-name="Commit - None" transform="translate(400 140)" />
      <rect width="12" height="12" rx="2" fill="#EBEDF0" data-name="Commit - None" transform="translate(424 140)" />
      <rect width="12" height="12" rx="2" fill="#EBEDF0" data-name="Commit - None" transform="translate(568 140)" />
      <rect width="12" height="12" rx="2" fill="#EBEDF0" data-name="Commit - None" transform="translate(592 140)" />
      <rect width="12" height="12" rx="2" fill="#EBEDF0" data-name="Commit - None" transform="translate(616 140)" />
      <rect width="12" height="12" rx="2" fill="#EBEDF0" data-name="Commit - None" transform="translate(664 92)" />
      <rect width="12" height="12" rx="2" fill="#EBEDF0" data-name="Commit - None" transform="translate(664 116)" />
      <rect width="12" height="12" rx="2" fill="#EBEDF0" data-name="Commit - None" transform="translate(664 140)" />
      <rect width="12" height="12" rx="2" fill="#EBEDF0" data-name="Commit - None" transform="translate(688 140)" />
      <rect width="12" height="12" rx="2" fill="#309F4D" data-name="Commit - None" transform="translate(688 116)" />
      <rect width="12" height="12" rx="2" fill="#9BE9A8" data-name="Commit - None" transform="translate(688 92)" />
      <rect width="12" height="12" rx="2" fill="#EBEDF0" data-name="Commit - None" transform="translate(640 70)" />
      <rect width="12" height="12" rx="2" fill="#EBEDF0" data-name="Commit - None" transform="translate(640 48)" />
      <rect width="12" height="12" rx="2" fill="#EBEDF0" data-name="Commit - None" transform="translate(640 24)" />
      <rect width="12" height="12" rx="2" fill="#EBEDF0" data-name="Commit - None" transform="translate(664 24)" />
      <rect width="12" height="12" rx="2" fill="#EBEDF0" data-name="Commit - None" transform="translate(664 48)" />
      <rect width="12" height="12" rx="2" fill="#EBEDF0" data-name="Commit - None" transform="translate(664 70)" />
      <rect width="12" height="12" rx="2" fill="#9BE9A8" data-name="Commit - None" transform="translate(688 70)" />
      <rect width="12" height="12" rx="2" fill="#309F4D" data-name="Commit - None" transform="translate(688 48)" />
      <rect width="12" height="12" rx="2" fill="#EBEDF0" data-name="Commit - None" transform="translate(688 24)" />
      <rect width="12" height="12" rx="2" fill="#EBEDF0" data-name="Commit - None" transform="translate(640 92)" />
      <rect width="12" height="12" rx="2" fill="#EBEDF0" data-name="Commit - None" transform="translate(616 116)" />
      <rect width="12" height="12" rx="2" fill="#EBEDF0" data-name="Commit - None" transform="translate(616 92)" />
      <rect width="12" height="12" rx="2" fill="#EBEDF0" data-name="Commit - None" transform="translate(616 70)" />
      <rect width="12" height="12" rx="2" fill="#EBEDF0" data-name="Commit - None" transform="translate(616 48)" />
      <rect width="12" height="12" rx="2" fill="#EBEDF0" data-name="Commit - None" transform="translate(616 24)" />
      <rect width="12" height="12" rx="2" fill="#EBEDF0" data-name="Commit - None" transform="translate(592 24)" />
      <rect width="12" height="12" rx="2" fill="#EBEDF0" data-name="Commit - None" transform="translate(568 24)" />
      <rect width="12" height="12" rx="2" fill="#EBEDF0" data-name="Commit - None" transform="translate(712 24)" />
      <rect width="12" height="12" rx="2" fill="#309F4D" data-name="Commit - None" transform="translate(712 48)" />
      <rect width="12" height="12" rx="2" fill="#216E39" data-name="Commit - None" transform="translate(712 92)" />
      <rect width="12" height="12" rx="2" fill="#216E39" data-name="Commit - None" transform="translate(712 116)" />
      <rect width="12" height="12" rx="2" fill="#EBEDF0" data-name="Commit - None" transform="translate(712 140)" />
      <rect width="12" height="12" rx="2" fill="#EBEDF0" data-name="Commit - None" transform="translate(736 140)" />
      <rect width="12" height="12" rx="2" fill="#309F4D" data-name="Commit - None" transform="translate(736 116)" />
      <rect width="12" height="12" rx="2" fill="#309F4D" data-name="Commit - None" transform="translate(736 92)" />
      <rect width="12" height="12" rx="2" fill="#216E39" data-name="Commit - None" transform="translate(760 92)" />
      <rect width="12" height="12" rx="2" fill="#EBEDF0" data-name="Commit - None" transform="translate(784 70)" />
      <rect width="12" height="12" rx="2" fill="#EBEDF0" data-name="Commit - None" transform="translate(784 48)" />
      <rect width="12" height="12" rx="2" fill="#EBEDF0" data-name="Commit - None" transform="translate(784 24)" />
      <rect width="12" height="12" rx="2" fill="#EBEDF0" data-name="Commit - None" transform="translate(820 24)" />
      <rect width="12" height="12" rx="2" fill="#EBEDF0" data-name="Commit - None" transform="translate(820 70)" />
      <rect width="12" height="12" rx="2" fill="#EBEDF0" data-name="Commit - None" transform="translate(760 24)" />
      <rect width="12" height="12" rx="2" fill="#EBEDF0" data-name="Commit - None" transform="translate(736 24)" />
      <rect width="12" height="12" rx="2" fill="#309F4D" data-name="Commit - None" transform="translate(736 48)" />
      <rect width="12" height="12" rx="2" fill="#EBEDF0" data-name="Commit - None" transform="translate(760 140)" />
      <rect width="12" height="12" rx="2" fill="#EBEDF0" data-name="Commit - None" transform="translate(784 140)" />
      <rect width="12" height="12" rx="2" fill="#EBEDF0" data-name="Commit - None" transform="translate(808 140)" />
      <rect width="12" height="12" rx="2" fill="#EBEDF0" data-name="Commit - None" transform="translate(832 140)" />
      <rect width="12" height="12" rx="2" fill="#216E39" data-name="Commit - None" transform="translate(784 92)" />
      <rect width="12" height="12" rx="2" fill="#EBEDF0" data-name="Commit - None" transform="translate(820 92)" />
      <rect width="12" height="12" rx="2" fill="#EBEDF0" data-name="Commit - None" transform="translate(568 48)" />
      <rect width="12" height="12" rx="2" fill="#EBEDF0" data-name="Commit - None" transform="translate(544 24)" />
      <rect width="12" height="12" rx="2" fill="#EBEDF0" data-name="Commit - None" transform="translate(520 24)" />
      <rect width="12" height="12" rx="2" fill="#EBEDF0" data-name="Commit - None" transform="translate(472 48)" />
      <rect width="12" height="12" rx="2" fill="#EBEDF0" data-name="Commit - None" transform="translate(520 48)" />
      <rect width="12" height="12" rx="2" fill="#EBEDF0" data-name="Commit - None" transform="translate(496 48)" />
      <rect width="12" height="12" rx="2" fill="#EBEDF0" data-name="Commit - None" transform="translate(496 24)" />
      <rect width="12" height="12" rx="2" fill="#EBEDF0" data-name="Commit - None" transform="translate(304 140)" />
      <rect width="12" height="12" rx="2" fill="#EBEDF0" data-name="Commit - None" transform="translate(280 140)" />
      <rect width="12" height="12" rx="2" fill="#EBEDF0" data-name="Commit - None" transform="translate(256 140)" />
      <rect width="12" height="12" rx="2" fill="#EBEDF0" data-name="Commit - None" transform="translate(232 139)" />
      <rect width="12" height="12" rx="2" fill="#EBEDF0" data-name="Commit - None" transform="translate(280 70)" />
      <rect width="12" height="12" rx="2" fill="#216E39" data-name="Commit - Big" transform="translate(136 140)" />
      <rect width="12" height="12" rx="2" fill="#216E39" data-name="Commit - Big" transform="translate(136 92)" />
      <rect width="12" height="12" rx="2" fill="#216E39" data-name="Commit - Big" transform="translate(112 92)" />
      <rect width="12" height="12" rx="2" fill="#216E39" data-name="Commit - Big" transform="translate(88 92)" />
      <rect width="12" height="12" rx="2" fill="#216E39" data-name="Commit - Big" transform="translate(112 140)" />
      <path
        d="M24.6 9.86298C23.8742 7.06359 22.2002 4.60245 19.8633 2.89891C17.5264 1.19538 14.671 0.354845 11.7838 0.520532C8.89665 0.68622 6.15623 1.84788 4.02951 3.80757C1.90279 5.76726 0.521365 8.40374 0.120606 11.2678C-0.280153 14.1318 0.324552 17.0462 1.83169 19.5144C3.33882 21.9825 5.65514 23.8518 8.38596 24.8036C11.1168 25.7554 14.0931 25.7309 16.8079 24.7342C19.5227 23.7376 21.8079 21.8304 23.2742 19.3378L12.5 13L24.6 9.86298Z"
        fill="#FEED30" data-name="Pacman (Boca Aberta)" class="Pacman_Boca_Aberta_26" rx="12.5" ry="12.5" />
    </g>
  </g>
  <defs>
    <clipPath id="clip_0_287">
      <rect width="880" height="192" />
    </clipPath>
  </defs>
</svg>
