<svg width="880" height="192" viewBox="0 0 880 192" fill="none" xmlns="http://www.w3.org/2000/svg">
  <path
    d="M784 13L855 13.5C856.833 13.3333 860.5 14 860.5 18V50.5C860.667 51.8333 859.9 54.5 855.5 54.5H814.5C812.833 55.6667 810.5 58.8 814.5 62H856.5C857.833 62 860.5 62.6 860.5 65V122.5C860.5 123.667 859.5 126 855.5 126H823.5C822.167 125.667 819.5 124.5 819.5 122.5V104C818.333 102.5 815.2 100.4 812 104V122.5C811.667 123.667 810.4 126 808 126H767C765.333 127.167 763 130.3 767 133.5H855.5C857.167 133.5 860.5 134.2 860.5 137V170C860.5 171.167 859.5 173.5 855.5 173.5H659.5C658.167 173.667 655.5 173.1 655.5 169.5V127.5C654.5 126 651.6 123.9 648 127.5V169.5C648 171 647.1 173.9 643.5 173.5H564C562.667 173.5 560 172.7 560 169.5V136C560.167 135 561.2 133 564 133H606C606.667 133 608 132.5 608 130.5V56C606.875 54.3333 603.763 52 600.312 56C600.463 60.4 600.5 70.1667 600.5 74.5C600.333 75.8333 599.3 78.5 596.5 78.5C593.7 78.5 573.667 78.1667 564 78C562.667 78.1667 560 77.5 560 73.5V56.5C559 55.1667 556.2 53.3 553 56.5V74.5C553.167 75.8333 552.5 78.5 548.5 78.5H483.5C481.833 79.5 479.5 82.3 483.5 85.5H596.5C597.833 85.8333 600.5 87 600.5 89V122C600.5 123.333 599.7 126 596.5 126H555C554.333 126 553 126.6 553 129V169.5C553 170.833 552.2 173.5 549 173.5H231.5C230 173.667 227 173 227 169V136C227.167 135 228 133 230 133H320C321.5 131.833 323.6 128.8 320 126H278.5C277.167 126.167 274.5 125.6 274.5 122V65C274.5 63.8333 275.2 61.5 278 61.5H311.5C312.667 61.6667 315 62.6 315 65V82.5C314.833 83.5 315.2 85.5 318 85.5H392C392.5 85.5 393.5 85.2 393.5 84V79.5C393.333 79 392.5 78 390.5 78H326C324.667 78.1667 322 77.6 322 74V56C321.833 55.5 321.1 54.5 319.5 54.5H269C268.5 54.5 267.5 55.1 267.5 57.5C267.5 59.9 267.167 101.5 267 122C267.167 123.333 266.6 126 263 126H221C220.5 125.833 219.5 126.2 219.5 129V169C219.667 170.5 219 173.5 215 173.5H22C20.6667 173.5 18 172.7 18 169.5V65C18.1667 64 19.2 62 22 62H64C64.6667 62 66 61.6 66 60V55.5C65.8333 55 64.8 54.1 62 54.5H22C20.6667 54.5 18 53.5 18 49.5V17C18.3333 15.5 19.5 12.6 21.5 13C23.5 13.4 92.6667 13.1667 127 13H382C383.5 13.3333 386.5 14.4 386.5 16V33.5C386.5 34.6667 387.1 37 389.5 37H486.5C487.333 36.8333 489 35.9 489 33.5V16C489.167 15 490 13 492 13H784.5M773 56.5V84C773 84.5 772.4 85.5 770 85.5H720.5C719 84.3333 716.9 81.3 720.5 78.5H762C763.333 78.1667 766 76.8 766 74V56.5C767.167 55 770.2 52.9 773 56.5ZM430 126H365C363.5 127.167 361.4 130.2 365 133H510.75C512.167 131.667 514.15 128.4 510.75 126H445C443.667 126 441 125.2 441 122V79.8125C440 78.4167 437.2 76.4625 434 79.8125V122C434 123.333 433.2 126 430 126ZM14 182H867C869.209 182 871 180.209 871 178V11C871 8.79086 869.209 7 867 7H14C11.7909 7 10 8.79086 10 11V178C10 180.209 11.7909 182 14 182ZM65.5 122.5V104C64.5 102.5 61.7 100.4 58.5 104V129.5C58.5 130.667 59 133 61 133H112C112.333 132.833 113 132.2 113 131V127.5C112.833 127 111.8 126 109 126H69.5C68.1667 126 65.5 125.3 65.5 122.5ZM106 56V82.5C106 83.5 106.4 85.5 108 85.5H159C159.667 85.3333 161 84.7 161 83.5V80C161 79.3333 160.2 78 157 78H117C115.667 78.1667 113 77.6 113 74V56C111.833 54.5 108.8 52.4 106 56Z"
    stroke="#0033FF" stroke-width="2" />
  <rect x="170" y="99" width="12" height="12" rx="2" fill="#309F4D" />
  <rect x="194" y="99" width="12" height="12" rx="2" fill="#309F4D" />
  <rect x="218" y="99" width="12" height="12" rx="2" fill="#309F4D" />
  <rect x="194" y="123" width="12" height="12" rx="2" fill="#309F4D" />
  <rect x="122" y="123" width="12" height="12" rx="2" fill="#309F4D" />
  <rect x="26" y="77" width="12" height="12" rx="2" fill="#309F4D" />
  <rect x="194" y="147" width="12" height="12" rx="2" fill="#9BE9A8" />
  <rect x="242" y="99" width="12" height="12" rx="2" fill="#9BE9A8" />
  <rect x="170" y="147" width="12" height="12" rx="2" fill="#9BE9A8" />
  <rect x="170" y="123" width="12" height="12" rx="2" fill="#9BE9A8" />
  <rect x="74" y="77" width="12" height="12" rx="2" fill="#9BE9A8" />
  <rect x="50" y="77" width="12" height="12" rx="2" fill="#9BE9A8" />
  <rect x="146" y="123" width="12" height="12" rx="2" fill="#9BE9A8" />
  <rect x="74" y="99" width="12" height="12" rx="2" fill="#9BE9A8" />
  <rect x="242" y="77" width="12" height="12" rx="2" fill="#EBEDF0" />
  <rect x="218" y="77" width="12" height="12" rx="2" fill="#EBEDF0" />
  <rect x="194" y="77" width="12" height="12" rx="2" fill="#EBEDF0" />
  <rect x="170" y="77" width="12" height="12" rx="2" fill="#EBEDF0" />
  <rect x="170" y="55" width="12" height="12" rx="2" fill="#309F4D" />
  <rect x="194" y="55" width="12" height="12" rx="2" fill="#9BE9A8" />
  <rect x="218" y="55" width="12" height="12" rx="2" fill="#9BE9A8" />
  <rect x="242" y="55" width="12" height="12" rx="2" fill="#EBEDF0" />
  <rect x="146" y="55" width="12" height="12" rx="2" fill="#EBEDF0" />
  <rect x="122" y="55" width="12" height="12" rx="2" fill="#EBEDF0" />
  <rect x="74" y="55" width="12" height="12" rx="2" fill="#EBEDF0" />
  <rect x="74" y="33" width="12" height="12" rx="2" fill="#EBEDF0" />
  <rect x="50" y="33" width="12" height="12" rx="2" fill="#EBEDF0" />
  <rect x="26" y="33" width="12" height="12" rx="2" fill="#EBEDF0" />
  <rect x="98" y="33" width="12" height="12" rx="2" fill="#EBEDF0" />
  <rect x="122" y="33" width="12" height="12" rx="2" fill="#EBEDF0" />
  <rect x="146" y="33" width="12" height="12" rx="2" fill="#EBEDF0" />
  <rect x="170" y="33" width="12" height="12" rx="2" fill="#216E39" />
  <rect x="194" y="33" width="12" height="12" rx="2" fill="#216E39" />
  <rect x="218" y="33" width="12" height="12" rx="2" fill="#EBEDF0" />
  <rect x="242" y="33" width="12" height="12" rx="2" fill="#EBEDF0" />
  <rect x="266" y="33" width="12" height="12" rx="2" fill="#EBEDF0" />
  <rect x="290" y="33" width="12" height="12" rx="2" fill="#EBEDF0" />
  <rect x="314" y="33" width="12" height="12" rx="2" fill="#EBEDF0" />
  <rect x="98" y="146" width="12" height="12" rx="2" fill="#EBEDF0" />
  <rect x="74" y="146" width="12" height="12" rx="2" fill="#EBEDF0" />
  <rect x="50" y="146" width="12" height="12" rx="2" fill="#EBEDF0" />
  <rect x="26" y="146" width="12" height="12" rx="2" fill="#EBEDF0" />
  <rect x="26" y="123" width="12" height="12" rx="2" fill="#EBEDF0" />
  <rect x="26" y="99" width="12" height="12" rx="2" fill="#EBEDF0" />
  <rect x="338" y="33" width="12" height="12" rx="2" fill="#EBEDF0" />
  <rect x="338" y="55" width="12" height="12" rx="2" fill="#EBEDF0" />
  <rect x="362" y="55" width="12" height="12" rx="2" fill="#EBEDF0" />
  <rect x="362" y="33" width="12" height="12" rx="2" fill="#EBEDF0" />
  <rect x="386" y="55" width="12" height="12" rx="2" fill="#EBEDF0" />
  <rect x="410" y="55" width="12" height="12" rx="2" fill="#EBEDF0" />
  <rect x="434" y="55" width="12" height="12" rx="2" fill="#EBEDF0" />
  <rect x="458" y="55" width="12" height="12" rx="2" fill="#EBEDF0" />
  <rect x="458" y="77" width="12" height="12" rx="2" fill="#EBEDF0" />
  <rect x="458" y="99" width="12" height="12" rx="2" fill="#EBEDF0" />
  <rect x="482" y="99" width="12" height="12" rx="2" fill="#EBEDF0" />
  <rect x="506" y="99" width="12" height="12" rx="2" fill="#EBEDF0" />
  <rect x="530" y="99" width="12" height="12" rx="2" fill="#EBEDF0" />
  <rect x="554" y="99" width="12" height="12" rx="2" fill="#EBEDF0" />
  <rect x="530" y="123" width="12" height="12" rx="2" fill="#EBEDF0" />
  <rect x="530" y="147" width="12" height="12" rx="2" fill="#EBEDF0" />
  <rect x="506" y="146" width="12" height="12" rx="2" fill="#EBEDF0" />
  <rect x="482" y="146" width="12" height="12" rx="2" fill="#EBEDF0" />
  <rect x="458" y="146" width="12" height="12" rx="2" fill="#EBEDF0" />
  <rect x="578" y="99" width="12" height="12" rx="2" fill="#EBEDF0" />
  <rect x="410" y="77" width="12" height="12" rx="2" fill="#EBEDF0" />
  <rect x="410" y="99" width="12" height="12" rx="2" fill="#EBEDF0" />
  <rect x="386" y="99" width="12" height="12" rx="2" fill="#EBEDF0" />
  <rect x="362" y="99" width="12" height="12" rx="2" fill="#EBEDF0" />
  <rect x="338" y="99" width="12" height="12" rx="2" fill="#309F4D" />
  <rect x="314" y="99" width="12" height="12" rx="2" fill="#EBEDF0" />
  <rect x="290" y="99" width="12" height="12" rx="2" fill="#EBEDF0" />
  <rect x="338" y="123" width="12" height="12" rx="2" fill="#309F4D" />
  <rect x="338" y="147" width="12" height="12" rx="2" fill="#309F4D" />
  <rect x="362" y="147" width="12" height="12" rx="2" fill="#EBEDF0" />
  <rect x="386" y="147" width="12" height="12" rx="2" fill="#EBEDF0" />
  <rect x="410" y="147" width="12" height="12" rx="2" fill="#EBEDF0" />
  <rect x="434" y="147" width="12" height="12" rx="2" fill="#EBEDF0" />
  <rect x="578" y="147" width="12" height="12" rx="2" fill="#EBEDF0" />
  <rect x="602" y="147" width="12" height="12" rx="2" fill="#EBEDF0" />
  <rect x="626" y="147" width="12" height="12" rx="2" fill="#EBEDF0" />
  <rect x="674" y="99" width="12" height="12" rx="2" fill="#EBEDF0" />
  <rect x="674" y="123" width="12" height="12" rx="2" fill="#EBEDF0" />
  <rect x="674" y="147" width="12" height="12" rx="2" fill="#EBEDF0" />
  <rect x="698" y="147" width="12" height="12" rx="2" fill="#EBEDF0" />
  <rect x="698" y="123" width="12" height="12" rx="2" fill="#309F4D" />
  <rect x="698" y="99" width="12" height="12" rx="2" fill="#9BE9A8" />
  <rect x="650" y="77" width="12" height="12" rx="2" fill="#EBEDF0" />
  <rect x="650" y="55" width="12" height="12" rx="2" fill="#EBEDF0" />
  <rect x="650" y="31" width="12" height="12" rx="2" fill="#EBEDF0" />
  <rect x="674" y="31" width="12" height="12" rx="2" fill="#EBEDF0" />
  <rect x="674" y="55" width="12" height="12" rx="2" fill="#EBEDF0" />
  <rect x="674" y="77" width="12" height="12" rx="2" fill="#EBEDF0" />
  <rect x="698" y="77" width="12" height="12" rx="2" fill="#9BE9A8" />
  <rect x="698" y="55" width="12" height="12" rx="2" fill="#309F4D" />
  <rect x="698" y="31" width="12" height="12" rx="2" fill="#EBEDF0" />
  <rect x="650" y="99" width="12" height="12" rx="2" fill="#EBEDF0" />
  <rect x="626" y="123" width="12" height="12" rx="2" fill="#EBEDF0" />
  <rect x="626" y="99" width="12" height="12" rx="2" fill="#EBEDF0" />
  <rect x="626" y="77" width="12" height="12" rx="2" fill="#EBEDF0" />
  <rect x="626" y="55" width="12" height="12" rx="2" fill="#EBEDF0" />
  <rect x="626" y="31" width="12" height="12" rx="2" fill="#EBEDF0" />
  <rect x="602" y="31" width="12" height="12" rx="2" fill="#EBEDF0" />
  <rect x="578" y="31" width="12" height="12" rx="2" fill="#EBEDF0" />
  <rect x="722" y="31" width="12" height="12" rx="2" fill="#EBEDF0" />
  <rect x="722" y="55" width="12" height="12" rx="2" fill="#309F4D" />
  <rect x="722" y="99" width="12" height="12" rx="2" fill="#216E39" />
  <rect x="722" y="123" width="12" height="12" rx="2" fill="#216E39" />
  <rect x="722" y="147" width="12" height="12" rx="2" fill="#EBEDF0" />
  <rect x="746" y="147" width="12" height="12" rx="2" fill="#EBEDF0" />
  <rect x="746" y="123" width="12" height="12" rx="2" fill="#309F4D" />
  <rect x="746" y="99" width="12" height="12" rx="2" fill="#309F4D" />
  <rect x="770" y="99" width="12" height="12" rx="2" fill="#216E39" />
  <rect x="794" y="77" width="12" height="12" rx="2" fill="#EBEDF0" />
  <rect x="794" y="55" width="12" height="12" rx="2" fill="#EBEDF0" />
  <rect x="794" y="31" width="12" height="12" rx="2" fill="#EBEDF0" />
  <rect x="830" y="31" width="12" height="12" rx="2" fill="#EBEDF0" />
  <rect x="830" y="77" width="12" height="12" rx="2" fill="#EBEDF0" />
  <rect x="770" y="31" width="12" height="12" rx="2" fill="#EBEDF0" />
  <rect x="746" y="31" width="12" height="12" rx="2" fill="#EBEDF0" />
  <rect x="746" y="55" width="12" height="12" rx="2" fill="#309F4D" />
  <rect x="770" y="147" width="12" height="12" rx="2" fill="#EBEDF0" />
  <rect x="794" y="147" width="12" height="12" rx="2" fill="#EBEDF0" />
  <rect x="818" y="147" width="12" height="12" rx="2" fill="#EBEDF0" />
  <rect x="842" y="147" width="12" height="12" rx="2" fill="#EBEDF0" />
  <rect x="794" y="99" width="12" height="12" rx="2" fill="#216E39" />
  <rect x="830" y="99" width="12" height="12" rx="2" fill="#EBEDF0" />
  <rect x="578" y="55" width="12" height="12" rx="2" fill="#EBEDF0" />
  <rect x="554" y="31" width="12" height="12" rx="2" fill="#EBEDF0" />
  <rect x="530" y="31" width="12" height="12" rx="2" fill="#EBEDF0" />
  <rect x="482" y="55" width="12" height="12" rx="2" fill="#EBEDF0" />
  <rect x="530" y="55" width="12" height="12" rx="2" fill="#EBEDF0" />
  <rect x="506" y="55" width="12" height="12" rx="2" fill="#EBEDF0" />
  <rect x="506" y="31" width="12" height="12" rx="2" fill="#EBEDF0" />
  <rect x="314" y="147" width="12" height="12" rx="2" fill="#EBEDF0" />
  <rect x="290" y="147" width="12" height="12" rx="2" fill="#EBEDF0" />
  <rect x="266" y="147" width="12" height="12" rx="2" fill="#EBEDF0" />
  <rect x="242" y="146" width="12" height="12" rx="2" fill="#EBEDF0" />
  <rect x="290" y="77" width="12" height="12" rx="2" fill="#EBEDF0" />
  <rect x="146" y="147" width="12" height="12" rx="2" fill="#216E39" />
  <rect x="146" y="99" width="12" height="12" rx="2" fill="#216E39" />
  <rect x="122" y="99" width="12" height="12" rx="2" fill="#216E39" />
  <rect x="98" y="99" width="12" height="12" rx="2" fill="#216E39" />
  <rect x="122" y="147" width="12" height="12" rx="2" fill="#216E39" />
  <path
    d="M457.6 148.863C456.874 146.064 455.2 143.602 452.863 141.899C450.526 140.195 447.671 139.355 444.784 139.521C441.897 139.686 439.156 140.848 437.03 142.808C434.903 144.767 433.521 147.404 433.121 150.268C432.72 153.132 433.325 156.046 434.832 158.514C436.339 160.983 438.655 162.852 441.386 163.804C444.117 164.755 447.093 164.731 449.808 163.734C452.523 162.738 454.808 160.83 456.274 158.338L445.5 152L457.6 148.863Z"
    fill="#FEED30" />
</svg>