<svg width="64" height="64" viewBox="0 0 64 64" fill="none" xmlns="http://www.w3.org/2000/svg">
<rect width="64" height="64" rx="12" fill="#FF9D12"/>
<rect x="4" y="4" width="56" height="56" rx="12" fill="#331900"/>
<path d="M30.875 38.3125H22.6562L21.0938 43H16.1094L24.5781 20.25H28.9219L37.4375 43H32.4531L30.875 38.3125ZM23.9219 34.5156H29.6094L26.75 26L23.9219 34.5156ZM44.0312 43H39.5V26.0938H44.0312V43ZM39.2344 21.7188C39.2344 21.0417 39.4583 20.4844 39.9062 20.0469C40.3646 19.6094 40.9844 19.3906 41.7656 19.3906C42.5365 19.3906 43.151 19.6094 43.6094 20.0469C44.0677 20.4844 44.2969 21.0417 44.2969 21.7188C44.2969 22.4062 44.0625 22.9688 43.5938 23.4062C43.1354 23.8438 42.526 24.0625 41.7656 24.0625C41.0052 24.0625 40.3906 23.8438 39.9219 23.4062C39.4635 22.9688 39.2344 22.4062 39.2344 21.7188Z" fill="#FF9D12"/>
</svg>
