<svg width="64" height="64" viewBox="0 0 64 64" fill="none" xmlns="http://www.w3.org/2000/svg">
<path d="M0 12C0 5.37258 5.37258 0 12 0H52C58.6274 0 64 5.37258 64 12V52C64 58.6274 58.6274 64 52 64H12C5.37258 64 0 58.6274 0 52V12Z" fill="#64B0E3"/>
<path fill-rule="evenodd" clip-rule="evenodd" d="M49.9189 43.7915L40.2065 14.6544C40.0376 14.1518 39.7088 13.7184 39.2703 13.4202C38.8319 13.1221 38.3079 12.9757 37.7784 13.0033H26.2693C25.7603 13.002 25.2637 13.1607 24.8498 13.457C24.4358 13.7533 24.1255 14.1721 23.9626 14.6544L14.1288 43.7915C14.0013 44.1672 13.9678 44.5684 14.0312 44.9601C14.0947 45.3517 14.2531 45.7219 14.4927 46.0381C14.7323 46.3544 15.0457 46.6071 15.4056 46.7742C15.7654 46.9413 16.1607 47.0176 16.5569 46.9966H23.6712C24.1761 46.9928 24.6673 46.8318 25.0764 46.5359C25.4854 46.2399 25.7921 45.8238 25.9536 45.3455L27.4348 41.0235L34.719 46.5352C35.1424 46.8418 35.6533 47.0036 36.1759 46.9966H47.5394C47.9316 47.0094 48.321 46.9271 48.6744 46.7565C49.0278 46.5859 49.3346 46.3322 49.5685 46.0172C49.8024 45.7021 49.9564 45.3351 50.0175 44.9474C50.0785 44.5598 50.0447 44.1632 49.9189 43.7915ZM36.273 45.394C36.0965 45.3942 35.9253 45.3342 35.7874 45.2241L22.0687 35.0504L21.8502 34.8804H29.1344L29.3287 34.3705L31.7568 28.2274L37.1957 44.3257C37.2394 44.4607 37.2476 44.6046 37.2194 44.7437C37.1913 44.8827 37.1278 45.0122 37.0351 45.1196C36.9424 45.227 36.8235 45.3086 36.69 45.3567C36.5565 45.4048 36.4129 45.4176 36.273 45.394ZM47.6122 45.394H38.5797C38.7611 44.8753 38.7611 44.3103 38.5797 43.7915L28.7459 14.6544H37.7784C37.9499 14.6553 38.1169 14.7095 38.2561 14.8096C38.3953 14.9097 38.5 15.0506 38.5554 15.2129L48.3892 44.35C48.4224 44.4709 48.4277 44.5979 48.4045 44.7212C48.3813 44.8445 48.3303 44.9609 48.2554 45.0616C48.1805 45.1622 48.0837 45.2445 47.9722 45.3021C47.8608 45.3597 47.7376 45.3911 47.6122 45.394Z" fill="white"/>
</svg>
