<svg width="65" height="65" viewBox="0 0 65 65" fill="none" xmlns="http://www.w3.org/2000/svg">
<path d="M0 12C0 5.37258 5.37258 0 12 0H53C59.6274 0 65 5.37258 65 12V53C65 59.6274 59.6274 65 53 65H12C5.37258 65 0 59.6274 0 53V12Z" fill="#0047B3"/>
<path d="M50.9545 14.0186C50.8862 14.008 50.8172 14.0019 50.7481 14.0001H14.2675C13.5695 13.9905 13.0105 14.553 13.0008 15.2657C12.9976 15.3412 13.0039 15.4168 13.0195 15.4907L18.325 48.5375C18.3914 48.9376 18.5917 49.3041 18.8938 49.5781C19.1926 49.8488 19.5829 49.9993 19.9882 50H45.4336C45.7383 50.0005 46.0328 49.8913 46.2621 49.6929C46.4914 49.4945 46.6399 49.2203 46.68 48.9216L49.8389 29.0003H38.1221L36.6222 38.0003H28.3738L26.2833 26.1075H50.2988L51.9855 15.5004C52.0887 14.7973 51.6296 14.1311 50.9545 14.0186Z" fill="white"/>
</svg>
