<svg width="72" height="72" viewBox="0 0 72 72" fill="none" xmlns="http://www.w3.org/2000/svg">
<path d="M5 17H67V55H5V17Z" fill="#5C9E31"/>
<path d="M59.023 36.023L35.866 50.653L12.977 36.291L36.134 21.661L59.023 36.023Z" fill="#FCEA2B"/>
<path d="M36 45C40.9706 45 45 40.9706 45 36C45 31.0294 40.9706 27 36 27C31.0294 27 27 31.0294 27 36C27 40.9706 31.0294 45 36 45Z" fill="#1E50A0"/>
<path d="M44.159 39.782C44.4889 39.0624 44.7229 38.3025 44.855 37.522C44.1114 35.9674 43.0271 34.6003 41.6826 33.5222C40.3382 32.444 38.7681 31.6827 37.0891 31.2945C35.4101 30.9064 33.6652 30.9015 31.984 31.2802C30.3028 31.6589 28.7285 32.4115 27.378 33.482C27.1845 34.1374 27.0664 34.8128 27.026 35.495C28.3531 34.4064 29.9166 33.6435 31.5913 33.2674C33.2661 32.8912 35.0057 32.9124 36.6708 33.329C38.336 33.7457 39.8805 34.5463 41.1808 35.6668C42.481 36.7873 43.501 38.1967 44.159 39.782Z" fill="white"/>
</svg>
