<svg width="65" height="65" viewBox="0 0 65 65" fill="none" xmlns="http://www.w3.org/2000/svg">
<path d="M0 12C0 5.37258 5.37258 0 12 0H53C59.6274 0 65 5.37258 65 12V53C65 59.6274 59.6274 65 53 65H12C5.37258 65 0 59.6274 0 53V12Z" fill="black"/>
<path d="M22.792 45.4102C20.9053 45.4102 19.1963 44.9453 17.665 44.0156C16.1475 43.0859 14.9648 41.7939 14.1172 40.1396C13.2695 38.4717 12.8457 36.6055 12.8457 34.541V33.6592C12.8457 31.5264 13.2559 29.6055 14.0762 27.8965C14.9102 26.1875 16.0654 24.8477 17.542 23.877C19.0186 22.8926 20.6182 22.4004 22.3408 22.4004C25.0342 22.4004 27.167 23.3232 28.7393 25.1689C30.3252 27.001 31.1182 29.5098 31.1182 32.6953V34.0693H15.2861V34.541C15.2861 37.0566 16.0039 39.1553 17.4395 40.8369C18.8887 42.5049 20.707 43.3389 22.8945 43.3389C24.207 43.3389 25.3623 43.0996 26.3604 42.6211C27.3721 42.1426 28.2881 41.377 29.1084 40.3242L30.6465 41.4932C28.8418 44.1045 26.2236 45.4102 22.792 45.4102ZM22.3408 24.4922C20.4951 24.4922 18.9365 25.1689 17.665 26.5225C16.4072 27.876 15.6416 29.6943 15.3682 31.9775H28.6777V31.7109C28.6094 29.5781 28.001 27.8418 26.8525 26.502C25.7041 25.1621 24.2002 24.4922 22.3408 24.4922ZM42.8691 31.8135L48.8574 22.8105H51.7695L44.2432 33.7002L52.0977 45H49.2061L42.8896 35.6074L36.5732 45H33.6816L41.5156 33.7002L33.9893 22.8105H36.8809L42.8691 31.8135Z" fill="white"/>
</svg>
