<svg width="65" height="65" viewBox="0 0 65 65" fill="none" xmlns="http://www.w3.org/2000/svg">
<path d="M0.5 12C0.5 5.64873 5.64873 0.5 12 0.5H53C59.3513 0.5 64.5 5.64873 64.5 12V53C64.5 59.3513 59.3513 64.5 53 64.5H12C5.64873 64.5 0.5 59.3513 0.5 53V12Z" fill="white" stroke="black"/>
<path d="M13.3415 38.969L24.9329 16.8813L36.3361 10.7692L39.7276 12.4809L28.3929 18.8846L40.1038 54.0873L36.3361 51.8959L27.5705 31.692L16.0636 40.4241L13.3415 38.969Z" fill="white"/>
<path d="M47.2262 33.2491C49.5905 33.2491 51.5071 31.4631 51.5071 29.2599C51.5071 27.0568 49.5905 25.2708 47.2262 25.2708C44.862 25.2708 42.9454 27.0568 42.9454 29.2599C42.9454 31.4631 44.862 33.2491 47.2262 33.2491Z" fill="white"/>
<path d="M50.35 27.4797C49.965 26.9331 49.4452 26.4955 48.841 26.2092C48.2369 25.9229 47.569 25.7977 46.9022 25.8458C46.2354 25.894 45.5924 26.1137 45.0356 26.4838C44.4789 26.8539 44.0273 27.3616 43.7248 27.9578C43.4271 28.5994 43.3316 29.3162 43.4509 30.0133C43.5702 30.7104 43.8986 31.3548 44.3925 31.8609C45.7464 31.9689 47.0938 31.5854 48.1879 30.7808C49.2821 29.9761 50.0496 28.8042 50.35 27.4797ZM38.8367 12.4187L36.3712 11.0657L25.6357 17.0406L26.4915 17.5028L28.1188 18.3587L31.0656 16.7219L38.8383 12.3901L38.8367 12.4187ZM39.8296 12.0076C39.8935 12.0232 39.9523 12.055 40.0004 12.0999C40.0484 12.1449 40.084 12.2014 40.1038 12.2642L43.6993 22.8737C43.7361 22.9579 43.7389 23.053 43.7071 23.1392C43.6753 23.2253 43.6114 23.2959 43.5287 23.3359C42.1566 24.089 41.0787 25.2831 40.4695 26.7249C39.8604 28.1668 39.7557 29.772 40.1723 31.2808C40.6696 32.9228 41.7261 34.3388 43.1584 35.2832C44.5907 36.2276 46.3084 36.6407 48.0135 36.4509C48.1071 36.4449 48.2003 36.4681 48.2802 36.5172C48.3601 36.5663 48.4228 36.6389 48.4598 36.725L52.1748 47.6151C52.1989 47.7028 52.1953 47.7959 52.1645 47.8814C52.1336 47.967 52.0772 48.041 52.0027 48.0933L40.5835 54.7695C40.5292 54.793 40.4705 54.8049 40.4114 54.8045C40.306 54.8242 40.1971 54.8062 40.1038 54.7535L36.0971 52.2354C36.024 52.1975 35.9645 52.1379 35.9265 52.0649L28.1012 34.0714L16.1848 40.8512C16.1136 40.8876 16.0354 40.9079 15.9556 40.911C15.8758 40.914 15.7963 40.8996 15.7226 40.8688L13.0132 39.3276C12.9246 39.2801 12.8576 39.2004 12.8259 39.1049C12.7942 39.0095 12.8002 38.9056 12.8427 38.8144L24.4197 16.8462C24.463 16.7711 24.5288 16.7114 24.6077 16.6757L36.1481 10.2385C36.2113 10.2047 36.282 10.1871 36.3537 10.1871C36.4254 10.1871 36.496 10.2047 36.5593 10.2385L39.8296 12.0076ZM25.5162 17.9076L24.9504 17.6176L13.7941 38.8654L15.831 40.0129L25.454 27.4223C25.5011 27.3643 25.5615 27.3184 25.63 27.2885C25.6984 27.2585 25.7731 27.2454 25.8477 27.2502C25.9208 27.2634 25.9898 27.2935 26.0493 27.338C26.1088 27.3825 26.1571 27.4403 26.1903 27.5068L36.6692 51.6489L39.4694 53.3781L28.2208 20.4943L27.7426 19.1237L25.5002 17.8917L25.5162 17.9076ZM42.7749 30.5779C42.5186 29.6303 42.5906 28.6238 42.9792 27.7224C43.3679 26.8209 44.0503 26.0776 44.9153 25.6134C45.7927 25.1227 46.8037 24.9245 47.8014 25.0477C48.7991 25.171 49.7316 25.6092 50.4631 26.2987C51.2914 27.0947 51.7698 28.1869 51.7931 29.3354C51.8164 30.4839 51.3828 31.5946 50.5875 32.4235L50.4631 32.5478C49.8894 33.0972 49.185 33.4912 48.4166 33.6927C47.6482 33.8942 46.8411 33.8964 46.0716 33.6993C45.3021 33.5021 44.5956 33.112 44.0187 32.5659C43.4419 32.0197 43.0138 31.3355 42.7749 30.5779Z" fill="black"/>
</svg>
