<svg width="64" height="64" viewBox="0 0 64 64" fill="none" xmlns="http://www.w3.org/2000/svg">
<rect width="64" height="64" rx="12" fill="black"/>
<path d="M39.3333 38.3333C42.8311 38.3333 45.6667 35.4978 45.6667 32C45.6667 28.5022 42.8311 25.6667 39.3333 25.6667C35.8355 25.6667 33 28.5022 33 32C33 35.4978 35.8355 38.3333 39.3333 38.3333Z" fill="#19BCFE"/>
<path fill-rule="evenodd" clip-rule="evenodd" d="M26.6667 51C28.3464 51 29.9573 50.3327 31.145 49.145C32.3327 47.9573 33 46.3464 33 44.6667V38.3333H26.6667C24.987 38.3333 23.3761 39.0006 22.1883 40.1883C21.0006 41.3761 20.3333 42.987 20.3333 44.6667C20.3333 46.3464 21.0006 47.9573 22.1883 49.145C23.3761 50.3327 24.987 51 26.6667 51V51Z" fill="#09CF83"/>
<path fill-rule="evenodd" clip-rule="evenodd" d="M26.6667 38.3333H33V25.6667H26.6667C24.987 25.6667 23.3761 26.3339 22.1883 27.5216C21.0006 28.7094 20.3333 30.3203 20.3333 32C20.3333 33.6797 21.0006 35.2906 22.1883 36.4783C23.3761 37.6661 24.987 38.3333 26.6667 38.3333V38.3333Z" fill="#A259FF"/>
<path fill-rule="evenodd" clip-rule="evenodd" d="M26.6667 25.6667H33V13H26.6667C24.987 13 23.3761 13.6673 22.1883 14.855C21.0006 16.0427 20.3333 17.6536 20.3333 19.3333C20.3333 21.013 21.0006 22.6239 22.1883 23.8117C23.3761 24.9994 24.987 25.6667 26.6667 25.6667V25.6667Z" fill="#F24E1E"/>
<path fill-rule="evenodd" clip-rule="evenodd" d="M39.3333 25.6667H33V13H39.3333C41.013 13 42.6239 13.6673 43.8117 14.855C44.9994 16.0427 45.6667 17.6536 45.6667 19.3333C45.6667 21.013 44.9994 22.6239 43.8117 23.8117C42.6239 24.9994 41.013 25.6667 39.3333 25.6667Z" fill="#FF7262"/>
</svg>
