<svg width="65" height="65" viewBox="0 0 65 65" fill="none" xmlns="http://www.w3.org/2000/svg">
<path d="M0 12C0 5.37258 5.37258 0 12 0H53C59.6274 0 65 5.37258 65 12V53C65 59.6274 59.6274 65 53 65H12C5.37258 65 0 59.6274 0 53V12Z" fill="black"/>
<path d="M38.8926 35.1075C39.641 35.1075 40.2756 35.4455 40.7962 36.1215C41.3168 36.7975 41.5609 37.6506 41.5283 38.6807C41.4958 39.7108 41.2517 40.5478 40.7962 41.1916C40.3406 41.8354 39.7061 42.1895 38.8926 42.2539C38.0792 42.3183 37.4609 41.9642 37.0379 41.1916C36.6149 40.419 36.3546 39.582 36.2569 38.6807C36.1593 37.7793 36.4196 36.9263 37.0379 36.1215C37.6561 35.3167 38.2744 34.9787 38.8926 35.1075ZM47.9711 25.7882C48.9148 26.7861 49.6632 27.8967 50.2163 29.1199C50.7695 30.3432 51.0298 31.7918 50.9973 33.4657C50.9973 35.8479 50.7044 37.8598 50.1187 39.5016C49.533 41.1433 48.7521 42.4953 47.7759 43.5576C46.7997 44.6199 45.7584 45.4569 44.6521 46.0685C43.5458 46.6802 42.4069 47.1308 41.2355 47.4206C40.0641 47.7103 39.0228 47.8712 38.1117 47.9034L35.9641 48H29.0332C28.5451 48 27.8292 47.9678 26.8856 47.9034C25.942 47.839 24.917 47.6781 23.8106 47.4206C22.7043 47.163 21.5654 46.7124 20.394 46.0685C19.2226 45.4247 18.165 44.5877 17.2214 43.5576C16.2778 42.5275 15.5131 41.1755 14.9274 39.5016C14.3417 37.8276 14.0325 35.8157 14 33.4657C14 31.824 14.2766 30.3754 14.8298 29.1199C15.3829 27.8645 16.1151 26.7539 17.0262 25.7882C16.9285 25.595 16.8797 25.2087 16.8797 24.6293C16.8797 24.0498 16.896 23.3738 16.9285 22.6012C16.9611 21.8287 17.1075 20.9273 17.3678 19.8972C17.6281 18.8671 17.9373 17.9013 18.2952 17C19.0111 17.0966 19.8408 17.3219 20.7845 17.676C21.5979 17.9657 22.5579 18.3681 23.6642 18.8832C24.7705 19.3982 26.0233 20.1386 27.4225 21.1044C28.0082 20.9434 28.7566 20.8146 29.6677 20.7181C30.5788 20.6215 31.5225 20.5893 32.4986 20.6215L35.3296 20.7181C36.2407 20.7503 36.9891 20.879 37.5748 21.1044C38.9414 20.1708 40.1942 19.4304 41.3331 18.8832C42.472 18.3359 43.4319 17.9335 44.2128 17.676C45.1565 17.3219 45.9862 17.0966 46.7021 17C47.0926 17.9657 47.4017 18.9315 47.6295 19.8972C47.8572 20.8629 48.0037 21.7643 48.0687 22.6012C48.1338 23.4382 48.1664 24.1142 48.1664 24.6293C48.1664 25.1443 48.1013 25.5306 47.9711 25.7882ZM32.5475 46.2617C34.4347 46.2617 36.2081 46.1651 37.8676 45.972C39.5272 45.7788 40.9589 45.4086 42.1628 44.8614C43.3668 44.3141 44.3267 43.4933 45.0426 42.3988C45.7584 41.3043 46.1001 39.8557 46.0676 38.053C46.0676 37.1838 45.9049 36.3468 45.5795 35.5421C45.2541 34.7373 44.7172 34.013 43.9688 33.3692C43.3505 32.7897 42.6347 32.4034 41.8212 32.2103C41.0077 32.0171 40.0966 31.9367 39.0879 31.9688C38.0792 32.001 37.0379 32.0654 35.9641 32.162C34.8903 32.2586 33.7514 32.3069 32.5475 32.3069H32.4498C31.2784 32.3069 30.1395 32.2586 29.0332 32.162C27.9269 32.0654 26.8856 32.001 25.9094 31.9688C24.9332 31.9367 24.0384 32.0171 23.2249 32.2103C22.4114 32.4034 21.6956 32.7897 21.0773 33.3692C20.3289 34.013 19.792 34.7373 19.4666 35.5421C19.1412 36.3468 18.9623 37.1838 18.9297 38.053C18.9297 39.8879 19.2877 41.3364 20.0035 42.3988C20.7194 43.4611 21.663 44.2819 22.8344 44.8614C24.0059 45.4408 25.4376 45.811 27.1296 45.972C28.8217 46.1329 30.5951 46.2295 32.4498 46.2617H32.5475ZM26.1047 35.1075C26.8531 35.1075 27.4876 35.4455 28.0082 36.1215C28.5288 36.7975 28.7729 37.6506 28.7403 38.6807C28.7078 39.7108 28.4638 40.5478 28.0082 41.1916C27.5527 41.8354 26.9181 42.1895 26.1047 42.2539C25.2912 42.3183 24.6729 41.9642 24.2499 41.1916C23.8269 40.419 23.5666 39.582 23.469 38.6807C23.3713 37.7793 23.6317 36.9263 24.2499 36.1215C24.8682 35.3167 25.4864 34.9787 26.1047 35.1075Z" fill="white"/>
<path d="M48 38C48 42.9706 41.8535 47 34.2714 47C26.6893 47 20.5429 42.9706 20.5429 38C20.5429 33.0294 26.6893 29 34.2714 29C41.8535 29 48 33.0294 48 38Z" fill="white"/>
<path d="M44.4571 38C44.4571 42.9706 38.3107 47 30.7286 47C23.1465 47 17 42.9706 17 38C17 33.0294 23.1465 29 30.7286 29C38.3107 29 44.4571 33.0294 44.4571 38Z" fill="white"/>
</svg>
