<svg width="65" height="65" viewBox="0 0 65 65" fill="none" xmlns="http://www.w3.org/2000/svg">
<path d="M0 12C0 5.37258 5.37258 0 12 0H53C59.6274 0 65 5.37258 65 12V53C65 59.6274 59.6274 65 53 65H12C5.37258 65 0 59.6274 0 53V12Z" fill="#EF6824"/>
<path d="M19.4516 13.848C19.1731 13.1875 18.041 13.1875 17.7535 13.848L12.6773 26.8215H24.5367C24.5277 26.8215 19.4516 13.848 19.4516 13.848ZM10.0809 33.3527C9.84727 33.9465 10.1078 34.607 10.7188 34.9855L32.991 48.6418L12.6684 26.8215L10.0809 33.3527ZM24.5277 26.8215L33 48.6418L41.4723 26.8215H24.5277ZM55.9191 33.3527L53.3316 26.8215L33 48.6418L55.2723 34.9855C55.8922 34.607 56.1438 33.9465 55.9191 33.3527ZM48.2465 13.848C47.968 13.1875 46.8359 13.1875 46.5484 13.848L41.4633 26.8215H53.3227L48.2465 13.848Z" fill="white"/>
</svg>
