<svg width="67" height="65" viewBox="0 0 67 65" fill="none" xmlns="http://www.w3.org/2000/svg">
<rect width="67" height="65" rx="12" fill="#EA2845"/>
<path fill-rule="evenodd" clip-rule="evenodd" d="M35.9176 9C35.6152 9.00441 35.3155 9.05989 35.0301 9.16429C37.5715 10.909 34.5738 13.4357 35.9743 15.5714C35.8778 14.8531 35.9872 14.121 36.2889 13.4675C36.5905 12.814 37.0708 12.2685 37.6691 11.8996C38.1176 11.5103 38.4055 11.3706 38.3096 10.7266C38.1538 9.67193 36.8067 9 35.9176 9ZM39.537 9.68014C39.1861 11.5251 38.7502 11.5924 37.4551 12.7802C36.9499 13.196 36.5935 13.777 36.443 14.43C36.2926 15.0829 36.357 15.7696 36.6258 16.3797C31.2754 14.2111 24.4176 12.9001 19.3898 16.6524C17.5817 18.0012 16.4786 19.9381 14.2488 20.7284C12.8073 21.2442 11.3911 21.0914 10.4878 22.5831C10.1575 23.0139 9.98489 23.5534 10.001 24.1049C10.0172 24.6565 10.221 25.184 10.5759 25.5929C10.845 25.8804 11.3627 26.0644 11.5768 26.3568C11.7011 26.5211 11.6979 26.6854 11.816 26.9039C12.0245 27.4131 12.326 27.8751 12.7035 28.2641C12.9348 28.4629 13.7295 28.6568 13.8648 28.8687C14.0348 29.1332 13.5942 30.183 13.964 30.3473C14.2126 30.4672 14.9412 29.125 15.012 29.0067C14.8672 30.0631 14.6768 31.9376 15.8145 30.3769C16.3543 29.6359 16.3873 29.3911 17.2953 29.2269C17.8764 29.1215 18.4637 29.0578 19.0531 29.0363C22.4202 28.9133 25.7042 30.1434 28.2284 32.473C30.7527 34.8027 32.3248 38.0544 32.6209 41.5581C32.4509 40.7367 31.4234 39.4224 30.4666 39.7346C30.059 39.866 29.908 40.6004 29.6404 41.0259C29.3022 41.5654 28.8854 42.0465 28.4051 42.4519C28.4864 41.6554 28.4482 40.8506 28.2918 40.0664C28.0054 41.2953 27.4311 43.3341 25.9849 43.0039C25.5031 42.9271 25.0518 42.7105 24.6822 42.3787C24.3127 42.047 24.04 41.6135 23.8951 41.1277C23.7079 39.8791 24.9715 38.4154 22.9399 38.3119C18.8642 38.1032 19.8068 44.3609 22.2129 45.9922C21.6599 46.0561 21.1205 46.2131 20.6157 46.4571C22.1441 47.3838 23.8662 47.9065 25.6323 47.9798C27.3984 48.0531 29.1548 47.6748 30.7489 46.8777C32.3429 46.0806 33.7262 44.8889 34.7784 43.4063C35.8307 41.9237 36.5199 40.1951 36.7863 38.371C37.1365 40.0416 37.1284 41.7723 36.7627 43.4392C36.5671 44.325 36.2746 45.1844 35.8909 46.0004C35.3707 47.1026 34.6795 48.1074 33.8452 48.974C33.3511 49.4849 32.4446 49.9991 32.1331 50.5199C34.0403 50.2559 35.9039 49.7209 37.6722 48.9296C35.8417 51.5473 33.4039 53.6361 30.5878 55C33.6072 54.777 36.526 53.7728 39.0809 52.0781C41.6358 50.3834 43.7465 48.0513 45.2225 45.2924C44.7521 48.0517 43.7073 50.6695 42.1618 52.9612C44.2405 51.5084 46.0089 49.6226 47.3562 47.4222C48.7034 45.2218 49.6003 42.7544 49.9906 40.1749C50.3781 42.0631 50.489 44.0019 50.3195 45.9249C52.027 43.4478 53.1805 40.6024 53.695 37.5983C54.2095 34.5941 54.0718 31.5077 53.2921 28.5664C52.6957 26.28 51.8014 24.0898 50.6342 22.0574C50.1835 21.2655 49.6902 20.5009 49.1566 19.7673C48.9473 19.4831 47.8284 18.4431 47.8284 18.1244C47.819 18.1562 47.8111 18.1562 47.8048 18.1244C47.8048 23.4604 42.2971 26.8858 37.6848 25.4565C39.4386 25.3145 41.0963 24.563 42.393 23.3221C43.6897 22.0812 44.5507 20.4224 44.8385 18.6107C45.0934 16.71 44.7027 14.7762 43.7342 13.1448C42.7658 11.5135 41.2808 10.2877 39.537 9.68014Z" fill="white"/>
</svg>
