<svg width="67" height="65" viewBox="0 0 67 65" fill="none" xmlns="http://www.w3.org/2000/svg">
<rect width="67" height="65" rx="12" fill="black"/>
<path d="M19.7417 24.346H29.9266V25.1413H20.6753V31.1259H29.375V31.921H20.6753V38.4916H30.0327V39.2867H19.7417V24.346ZM30.8391 24.346H31.9212L36.7166 30.9166L41.618 24.3459L48.2848 16L37.3319 31.6072L42.976 39.2867H41.8514L36.7166 32.2977L31.5604 39.2867H30.4571L36.1437 31.6071L30.839 24.346H30.8391ZM43.3791 25.1413V24.3459H54.9858V25.1412H49.6386V39.2866H48.705V25.1413H43.3791ZM7 24.3459H8.16701L24.2594 48L17.6093 39.2866L7.97601 25.476L7.93361 39.2868H7V24.3459ZM54.8917 38.2514C54.7009 38.2514 54.5579 38.1064 54.5579 37.9187C54.5579 37.7312 54.7009 37.5859 54.8917 37.5859C55.0847 37.5859 55.2255 37.7311 55.2255 37.9187C55.2255 38.1063 55.0847 38.2514 54.8917 38.2514ZM55.809 37.376H56.3086C56.3154 37.6417 56.5129 37.8205 56.8036 37.8205C57.1283 37.8205 57.3123 37.6284 57.3123 37.2688V34.9906H57.821V37.271C57.821 37.9187 57.4395 38.2917 56.8081 38.2917C56.2154 38.2917 55.809 37.9299 55.809 37.3759V37.376ZM58.4863 37.347H58.9904C59.0335 37.6529 59.3378 37.8472 59.7761 37.8472C60.1848 37.8472 60.4846 37.6395 60.4846 37.3536C60.4846 37.108 60.2938 36.9606 59.8601 36.8601L59.4377 36.7596C58.845 36.6233 58.5749 36.3419 58.5749 35.8684C58.5749 35.2945 59.0517 34.9125 59.767 34.9125C60.4323 34.9125 60.9183 35.2944 60.9478 35.8372H60.4527C60.4051 35.5401 60.1416 35.3547 59.7601 35.3547C59.3583 35.3547 59.0904 35.5446 59.0904 35.8349C59.0904 36.0649 59.2628 36.1967 59.6898 36.295L60.0508 36.3821C60.7229 36.5362 61 36.8043 61 37.2889C61 37.9053 60.5141 38.2917 59.7375 38.2917C59.0109 38.2917 58.5225 37.9231 58.4863 37.3469V37.347Z" fill="white"/>
</svg>
