<svg width="65" height="65" viewBox="0 0 65 65" fill="none" xmlns="http://www.w3.org/2000/svg">
<path d="M0 12C0 5.37258 5.37258 0 12 0H53C59.6274 0 65 5.37258 65 12V53C65 59.6274 59.6274 65 53 65H12C5.37258 65 0 59.6274 0 53V12Z" fill="url(#paint0_linear)"/>
<path d="M0 12C0 5.37258 5.37258 0 12 0H53C59.6274 0 65 5.37258 65 12V53C65 59.6274 59.6274 65 53 65H12C5.37258 65 0 59.6274 0 53V12Z" fill="url(#paint1_linear)"/>
<path d="M27.7718 11.4605C25.8005 14.7522 25.62 15.0206 24.898 15.7592C23.3947 17.3125 21.5327 18.1414 19.1624 18.31C18.7183 18.3409 16.158 18.3884 12.7452 18.4287C11.2299 18.4477 10.9639 18.4549 10.9259 18.4952C10.9022 18.5214 10.4865 19.146 9.99965 19.887L9.1209 21.2289L9.3679 21.2407C9.5009 21.2479 10.42 21.2336 11.4057 21.2146C12.4624 21.192 13.5193 21.177 14.5763 21.1695C15.9348 21.1695 15.9538 21.1695 16.1604 21.2407C16.7447 21.4402 17.0938 21.9675 17.0035 22.5066C16.9681 22.7486 16.8594 22.9738 16.6921 23.1522C16.5249 23.3305 16.307 23.4533 16.0678 23.5041C15.8208 23.5682 15.1772 23.5849 9.3679 23.6822C8.35615 23.6989 7.5154 23.7179 7.5059 23.7297C6.89428 24.6228 6.30276 25.5295 5.73178 26.4491C5.74128 26.4586 6.69365 26.4491 7.85265 26.4325C15.2864 26.3114 21.7322 26.214 23.5277 26.195C25.2543 26.176 25.8908 26.1475 26.3539 26.0667C27.6364 25.8482 28.6197 25.3614 29.4652 24.523C30.066 23.9245 30.5933 23.1645 31.4887 21.6017C31.7855 21.0864 32.1109 20.533 32.2178 20.3667L32.5455 19.8371C32.6239 19.7089 32.7118 19.5759 32.7403 19.5402C32.8187 19.45 32.9778 19.1935 33.0728 18.994C33.1535 18.8277 34.341 16.8422 34.854 16.0086C35.2103 15.4339 35.405 15.2676 35.8515 15.1655C36.469 15.023 37.229 15.4077 37.4024 15.954C37.5449 16.4005 37.4808 16.6784 37.0794 17.3552C34.2057 22.1884 33.1607 23.9197 32.5978 24.7724C31.0018 27.1901 28.5983 28.4869 25.4942 28.6032C25.2448 28.6104 23.6583 28.6389 21.9649 28.665L17.0914 28.7386L13.3128 28.8027C10.8571 28.844 8.40133 28.882 5.94553 28.9167C4.75328 28.9286 4.13815 28.9476 4.09303 28.969C3.97592 29.1007 3.87979 29.2497 3.80803 29.4107C3.49097 30.0018 3.26288 30.6364 3.13115 31.2941C3.11743 31.4029 3.08615 31.5088 3.03853 31.6076C2.98153 31.6242 2.99103 33.4767 3.04565 33.5314C3.09557 33.632 3.12771 33.7404 3.14065 33.852C3.27603 34.5289 3.60853 35.315 4.07878 36.0655L4.29728 36.4146L7.42278 36.4336C9.14228 36.4431 13.5907 36.4692 17.3123 36.4835C21.3308 36.5025 24.233 36.5286 24.461 36.5476C25.2163 36.6094 25.62 36.6711 26.2423 36.8279C27.7397 37.1873 29.1019 37.9706 30.1658 39.0841C30.7714 39.7111 31.0683 40.1291 32.4007 42.2642C33.5981 44.1869 34.7808 46.1186 35.9489 48.0592C36.2862 48.7242 36.0677 49.4154 35.4193 49.7217C35.2296 49.8194 35.0202 49.8723 34.8069 49.8764C34.5937 49.8805 34.3823 49.8358 34.189 49.7455C33.8447 49.5745 33.828 49.5555 32.0515 46.6817C31.6499 46.0287 31.2445 45.3779 30.8355 44.7295C30.5575 44.2857 30.2852 43.8383 30.0185 43.3876C29.1398 41.9151 28.622 41.1789 28.071 40.6279C27.3097 39.879 26.3508 39.3625 25.3065 39.1387C24.6273 38.9867 24.5038 38.982 19.7775 38.9559C17.2324 38.9379 14.6871 38.9268 12.1419 38.9226C10.3892 38.9226 8.26115 38.9107 7.41565 38.9036C6.18778 38.8846 5.87903 38.887 5.87903 38.9202C5.87903 38.9392 6.24953 39.5615 6.70553 40.293L7.53203 41.623L8.32053 41.6301C14.0372 41.6752 14.3293 41.6776 14.5407 41.718C15.0014 41.813 15.2745 42.0101 15.4574 42.383C15.5495 42.5339 15.5911 42.7103 15.5762 42.8865C15.5837 43.0386 15.5571 43.1906 15.4984 43.3311C15.4396 43.4716 15.3501 43.5973 15.2365 43.6987C15.0701 43.8606 14.8648 43.9767 14.6404 44.036C14.4623 44.0882 14.3032 44.093 11.7572 44.0835C9.57215 44.0764 9.0639 44.0835 9.0829 44.1144C9.63383 45.0169 10.1912 45.9154 10.7549 46.81C10.7739 46.8266 12.1609 46.848 14.3364 46.8599C17.2577 46.8789 17.963 46.8907 18.3098 46.9311C20.9342 47.2399 22.922 48.3632 24.4207 50.3915C24.6985 50.7667 25.0097 51.2607 26.5867 53.8115L27.6934 55.6022H29.3892C30.3202 55.6022 31.0849 55.5951 31.0849 55.5856C31.0849 55.5761 30.4745 54.5881 29.7312 53.3911C28.5461 51.489 27.3665 49.5834 26.1924 47.6745C25.9824 47.3297 25.7654 46.9893 25.5417 46.6532C24.7334 45.4875 23.5187 44.6659 22.1359 44.3495C21.5374 44.2046 21.1194 44.1666 20.0602 44.1524C19.0009 44.1381 18.8204 44.1144 18.5259 43.9624C18.2932 43.8416 18.1021 43.6538 17.9773 43.4232C17.8989 43.2689 17.8894 43.2142 17.8894 42.9221C17.8894 42.6205 17.8965 42.5777 17.9773 42.4281C18.0653 42.2662 18.1862 42.1245 18.3322 42.012C18.4782 41.8995 18.6461 41.8188 18.8252 41.775C18.9914 41.7251 19.1339 41.718 20.0602 41.718C20.8795 41.718 21.2002 41.7299 21.5445 41.775C23.7699 42.06 25.4395 42.8319 26.8265 44.2141C27.482 44.8696 27.7694 45.2662 28.6268 46.6889C28.9284 47.1852 29.6053 48.2849 30.1373 49.1304L32.631 53.1346L34.1605 55.6046H36.3099C38.0247 55.6046 38.4593 55.5927 38.4474 55.5619C38.2604 55.2513 38.0704 54.9425 37.8774 54.6356C36.7849 52.8852 36.7065 52.7451 36.659 52.396C36.5949 51.9067 36.9393 51.4009 37.4784 51.2085C37.7205 51.113 37.9857 51.0922 38.2397 51.149C38.4938 51.2057 38.7249 51.3373 38.9034 51.5267C39.0554 51.6764 39.8867 52.9755 41.1264 55.0061L41.4969 55.6117L41.9197 55.5904C42.9986 55.5488 44.0576 55.2861 45.0309 54.8185C45.1853 54.7472 45.3278 54.6855 45.3492 54.6784C46.3492 54.1772 47.2241 53.4582 47.9094 52.5741C49.8155 49.6922 51.71 46.8026 53.5928 43.9054C59.4923 34.8661 59.3712 35.0609 59.6585 34.2011C60.1947 32.6305 60.0967 30.9126 59.3854 29.4131C59.2714 29.1685 57.3952 26.119 54.0108 20.666C52.2385 17.7955 50.4549 14.932 48.6599 12.0756C47.9816 11.1469 47.0841 10.4004 46.0474 9.9025C45.375 9.54614 44.6529 9.29314 43.9052 9.152C43.4777 9.07362 43.4468 9.0665 43.4705 9.0285C43.48 9.0095 43.2188 9.00475 42.777 9.00475L42.0693 9.01662L41.4399 10.0616C40.0434 12.3891 39.9128 12.5981 39.7157 12.7952C39.5197 13.0034 39.2628 13.144 38.9818 13.1966C38.4545 13.2916 37.8038 12.9757 37.5805 12.515C37.5093 12.3796 37.5022 12.3155 37.5022 12.0305C37.5022 11.5864 37.4808 11.6339 38.6992 9.63175C38.8241 9.43577 38.9406 9.2345 39.0483 9.0285C39.0483 9.01187 38.3595 9 37.362 9H35.6758L35.6307 9.07125C34.1923 11.4742 32.7443 13.8714 31.2868 16.2627C30.788 17.0869 30.1753 18.1057 29.933 18.5261C29.3844 19.4666 29.1588 19.8086 28.7693 20.2931C28.3674 20.7784 27.9196 21.2238 27.4322 21.6231C26.1734 22.5992 24.6534 23.1906 22.8722 23.3972C22.0148 23.497 20.7727 23.5112 20.3262 23.4281C20.1364 23.3896 19.957 23.3113 19.7998 23.1983C19.6426 23.0853 19.5111 22.9402 19.4142 22.7726C19.3358 22.6182 19.3263 22.5755 19.3263 22.2739C19.3263 21.9889 19.3358 21.9247 19.407 21.7751C19.4909 21.6113 19.6089 21.4674 19.7532 21.3531C19.8974 21.2388 20.0644 21.1568 20.243 21.1125C20.4164 21.065 20.623 21.0484 21.4662 21.0246C22.0932 21.008 22.618 20.9771 22.8389 20.9462C23.3236 20.8744 23.8001 20.7551 24.2615 20.59C24.651 20.4356 25.202 20.1387 25.525 19.906C25.9972 19.5462 26.4204 19.1262 26.7838 18.6567C26.9168 18.481 27.5557 17.4479 28.2064 16.3625C28.8548 15.2747 30.1064 13.1942 30.9875 11.7384C31.8663 10.2801 32.5954 9.06887 32.6025 9.04275C32.6168 9.00475 32.3698 9 30.9329 9H29.2514L27.7742 11.4581L27.7718 11.4605ZM44.4823 12.7335C44.4823 12.7572 44.4942 12.781 44.5108 12.7857C44.5227 12.7881 44.7507 13.1396 45.0143 13.5624C46.216 15.4861 46.6578 16.2152 46.7243 16.3981C46.8098 16.6356 46.8193 16.9467 46.7433 17.1652C46.6152 17.4219 46.4177 17.6374 46.1733 17.7875C45.9266 17.9298 45.6398 17.9865 45.3575 17.9487C45.0752 17.9109 44.8134 17.7807 44.6129 17.5785C44.4229 17.4004 44.221 17.1011 43.5204 15.9516C43.2592 15.5194 43.0122 15.1299 42.9765 15.0824C42.9385 15.0254 42.9243 14.9731 42.9385 14.9256C42.9623 14.852 44.2685 12.8356 44.3659 12.7287C44.43 12.6575 44.4847 12.6575 44.4847 12.7359L44.4823 12.7335ZM41.1905 17.8089C41.181 17.8255 41.1905 17.8397 41.2024 17.8469C41.2309 17.8564 43.5845 21.6302 44.9407 23.839C46.0807 25.6867 46.5937 26.5156 47.0307 27.1949C47.7455 28.3087 48.0115 28.8265 48.2799 29.6316C48.553 30.4439 48.6599 31.1825 48.629 32.0185C48.6124 32.5885 48.5578 32.9447 48.42 33.5005C48.1778 34.4505 47.6482 35.5572 46.9713 36.5357C46.7575 36.8397 46.3229 37.3005 46.2493 37.3005C46.2255 37.3005 46.2018 37.3124 46.2018 37.329C46.2018 37.3432 46.1092 37.3884 45.9975 37.424C45.6935 37.5123 45.3693 37.5023 45.0713 37.3955C44.7735 37.2507 44.5291 37.0154 44.373 36.7234C44.297 36.5642 44.2923 36.5167 44.3042 36.2721C44.3208 35.9396 44.3897 35.7924 44.8528 35.0775C45.4465 34.1631 45.6888 33.662 45.8598 32.9756C46.1543 31.8119 46.0094 30.6576 45.4228 29.5081C44.8914 28.5973 44.3434 27.6963 43.7793 26.8054C42.8562 25.3303 41.9379 23.8522 41.0243 22.3712C40.2928 21.1932 39.6729 20.191 39.6373 20.1435C39.604 20.0936 39.5803 20.0366 39.5898 20.0152C39.6135 19.9511 40.991 17.8611 41.0623 17.7875C41.1098 17.7352 41.1335 17.7257 41.1644 17.7495C41.1882 17.7685 41.2 17.797 41.1882 17.8112L41.1905 17.8089ZM48.6528 19.9677C48.8959 20.0567 49.1096 20.2112 49.2703 20.4142C49.4959 20.6921 52.6547 25.7105 53.8089 27.6342C54.4739 28.7315 54.7827 29.4155 54.9964 30.2539C55.1437 30.831 55.2007 31.2775 55.2007 31.8902C55.2007 32.7049 55.1128 33.244 54.8563 34.0206C54.557 34.9279 54.3409 35.334 53.2935 36.9561C52.9135 37.5499 50.9233 40.6326 48.8808 43.8127L44.4585 50.6765C44.0714 51.2774 43.7389 51.7927 43.7223 51.8284C43.7033 51.8592 43.6772 51.883 43.6582 51.8759C43.1406 51.0938 42.6456 50.2971 42.1738 49.4866C42.1738 49.4652 42.2023 49.4082 42.2332 49.3631C45.2759 44.6379 48.3206 39.9141 51.3674 35.1915C51.8543 34.4362 51.9992 34.1726 52.182 33.719C52.4466 33.0885 52.5683 32.4071 52.5383 31.724C52.505 30.9735 52.3554 30.4415 51.935 29.6007C51.6263 28.969 51.3294 28.4702 50.6003 27.3445C50.3034 26.8861 49.9614 26.347 49.8427 26.1475C49.4617 25.5205 49.0769 24.8959 48.6884 24.2736C46.8739 21.3619 46.8953 21.3999 46.8905 21.0674C46.8905 20.7871 46.9855 20.5639 47.1945 20.3382C47.4019 20.1243 47.6653 19.9729 47.9545 19.9012C48.1891 19.8673 48.4283 19.8893 48.6528 19.9654V19.9677ZM37.8703 22.8534L38.3453 23.6252C40.9364 27.7744 41.0457 27.9572 41.3069 28.4774C42.4018 30.66 42.4113 32.8284 41.3402 34.973C41.1122 35.4242 41.0195 35.5786 39.5185 37.9085C37.5045 41.0435 37.2694 41.3997 37.2053 41.471C37.153 41.5232 37.1459 41.528 37.1459 41.4781C37.1459 41.4496 35.88 39.3857 34.3339 36.8944C33.3877 35.3814 32.4504 33.863 31.5219 32.3391C31.5219 32.3225 32.8377 30.3014 34.4503 27.8456C35.4936 26.2588 36.5339 24.6699 37.571 23.079C37.6354 22.9702 37.7119 22.869 37.799 22.7774C37.8157 22.7774 37.8465 22.8106 37.8703 22.8557V22.8534ZM43.6582 39.1055C43.932 39.2441 44.1604 39.4584 44.316 39.723C44.3689 39.8377 44.4018 39.9606 44.4134 40.0864C44.4372 40.4022 44.3564 40.5851 43.7864 41.4829C42.799 43.0312 41.8094 44.5781 40.8177 46.1236L40.5208 46.5844C40.4685 46.6794 40.459 46.6841 40.4068 46.6461C39.9131 45.8875 39.4341 45.1194 38.9699 44.3424C38.9414 44.2711 41.9078 39.6517 42.1215 39.4309C42.2537 39.2832 42.4178 39.1675 42.6013 39.0926C42.7848 39.0177 42.983 38.9856 43.1808 38.9986C43.3462 38.9956 43.5098 39.0323 43.6582 39.1055V39.1055Z" fill="white"/>
<defs>
<linearGradient id="paint0_linear" x1="32.5" y1="0" x2="32.5" y2="65" gradientUnits="userSpaceOnUse">
<stop stop-color="#A71BDC"/>
<stop offset="0.369792" stop-color="#7412EF" stop-opacity="0.9375"/>
</linearGradient>
<linearGradient id="paint1_linear" x1="32.5" y1="0" x2="32.5" y2="65" gradientUnits="userSpaceOnUse">
<stop stop-color="#A71BDC"/>
<stop offset="0.546875" stop-color="#7512EF" stop-opacity="0.93838"/>
<stop offset="1" stop-color="#D021A1" stop-opacity="0.9375"/>
</linearGradient>
</defs>
</svg>
