<svg width="65" height="65" viewBox="0 0 65 65" fill="none" xmlns="http://www.w3.org/2000/svg">
<path d="M0.5 12C0.5 5.64873 5.64873 0.5 12 0.5H53C59.3513 0.5 64.5 5.64873 64.5 12V53C64.5 59.3513 59.3513 64.5 53 64.5H12C5.64873 64.5 0.5 59.3513 0.5 53V12Z" stroke="#2F5B8B"/>
<mask id="path-2-inside-1_301_7" fill="white">
<path d="M51.956 38.9918C51.9309 38.9144 51.8962 38.8405 51.8527 38.7718C51.6007 38.2915 50.988 38.1466 50.0272 38.3483C47.0289 38.9717 45.8687 38.5866 45.4482 38.3116C47.8809 34.5569 49.8804 30.0211 50.9608 25.7897C51.4539 23.8647 52.4074 19.3308 51.182 17.1179C51.1043 16.9657 51.0133 16.8209 50.9101 16.6852C48.5698 13.6675 45.14 12.0449 40.9888 12.0009C38.2787 11.9716 35.9674 12.6353 35.3402 12.8791C35.0298 12.8203 34.7179 12.7702 34.4048 12.7288C33.6196 12.5855 32.8242 12.5076 32.0264 12.496C29.8837 12.4611 28.0329 12.98 26.4975 14.036C24.9458 13.4475 17.8198 11.0201 13.4093 14.1808C10.9421 15.9464 9.80731 19.0998 10.0267 23.5567C10.101 25.0564 10.9457 29.6691 12.2799 34.0876C13.1138 36.8486 13.9803 39.0413 14.8776 40.6547C15.8801 42.4771 16.9188 43.5752 17.9847 43.9364C18.7968 44.2078 20.0386 44.1986 21.3528 42.5999C22.4929 41.2208 23.6686 39.8722 24.8787 38.5555C25.6672 38.9863 26.5211 39.2192 27.3984 39.2467C27.3983 39.2491 27.3983 39.2516 27.3984 39.254C27.2459 39.4377 27.0966 39.6241 26.9507 39.8132C26.3362 40.6015 26.2074 40.7665 24.2315 41.179C23.6696 41.2964 22.1758 41.6062 22.1541 42.6659C22.1499 42.8777 22.2073 43.0862 22.3191 43.2654C22.7306 44.0409 23.9904 44.3838 24.159 44.4259C26.5791 45.0364 28.7 44.5946 30.2717 43.1811C30.2409 47.2713 30.4113 51.2809 30.8971 52.5093C31.2977 53.5231 32.2784 56 35.3746 56C35.8278 56 36.3281 55.945 36.8774 55.8277C40.1078 55.1273 41.5108 53.6826 42.0529 50.4999C42.3248 48.9049 42.7816 45.2289 43.0299 42.9812C43.0608 42.8529 43.0952 42.7612 43.1333 42.7319C43.1333 42.7319 43.2602 42.6439 43.9073 42.7869C43.9336 42.7928 43.9603 42.7971 43.9871 42.7997L44.4475 42.8401L44.4747 42.8419C46.0101 42.9134 47.9389 42.5816 49.0629 42.0535C50.2303 41.5035 52.3367 40.1597 51.9542 38.9918H51.956ZM13.5434 33.7722C12.1947 29.308 11.408 24.8162 11.3464 23.5585C11.1488 19.5764 12.1023 16.8062 14.1779 15.3212C17.508 12.9396 22.9517 14.3312 25.2503 15.0828L25.2322 15.1012C21.5649 18.8449 21.652 25.247 21.6646 25.6394C21.6646 25.7897 21.6755 26.0042 21.6936 26.2994C21.7553 27.3738 21.8749 29.3795 21.5595 31.6492C21.2695 33.7575 21.9112 35.8219 23.3233 37.3125C23.4683 37.4665 23.6224 37.6113 23.7801 37.747C23.1511 38.4271 21.7861 39.9342 20.3304 41.7034C19.3008 42.9537 18.5902 42.7136 18.3582 42.6347C17.6475 42.3964 16.8844 41.5585 16.1121 40.211C15.242 38.6728 14.3664 36.4856 13.5471 33.7722H13.5434ZM24.4327 43.1004C24.1575 43.0303 23.8938 42.9204 23.6496 42.7741C23.811 42.7026 24.0793 42.6091 24.5252 42.5174C26.8528 42.0315 27.2117 41.6905 27.9967 40.684C28.1761 40.4512 28.3791 40.189 28.6619 39.8718C28.7229 39.8029 28.7686 39.7217 28.7961 39.6335C29.1043 39.3567 29.2892 39.4318 29.5864 39.5565C29.8692 39.6757 30.1448 40.0332 30.2572 40.4273C30.3116 40.6144 30.3696 40.9682 30.1756 41.2432C28.5369 43.5642 26.1476 43.5349 24.4327 43.1004ZM28.2287 35.7889L28.1344 36.0456C27.8933 36.7001 27.6685 37.3088 27.529 37.8863C26.3198 37.8826 25.1415 37.3583 24.2478 36.4141C23.1094 35.2132 22.5928 33.543 22.8284 31.8307C23.1602 29.4326 23.0387 27.3444 22.9735 26.2224L22.9499 25.8191C23.4865 25.3387 25.97 23.993 27.741 24.4037C28.5495 24.5907 29.0426 25.148 29.2456 26.1051C30.3061 31.0625 29.387 33.1269 28.6474 34.7879C28.4974 35.1167 28.3583 35.4506 28.2305 35.7889H28.2287ZM41.5779 44.1711C41.5471 44.4956 41.5127 44.8604 41.4655 45.2638L41.2009 46.0668C41.1799 46.1307 41.1689 46.1975 41.1682 46.2648C41.1574 47.1357 41.0703 47.4547 40.9598 47.8598C40.8437 48.2797 40.715 48.7545 40.6335 49.7977C40.4341 52.3901 39.0419 53.8806 36.252 54.4838C33.5057 55.0796 33.018 53.5744 32.5902 52.2453C32.5456 52.1057 32.4984 51.9669 32.4488 51.8291C32.0591 50.7547 32.1044 49.2404 32.1642 47.1448C32.1932 46.1163 32.1189 43.6596 31.566 42.2937C31.5732 41.7565 31.5841 41.2102 31.6004 40.6584C31.6019 40.5882 31.5921 40.5182 31.5714 40.4512C31.5538 40.3223 31.5272 40.1949 31.4917 40.0698C31.2705 39.2852 30.7303 38.6288 30.0777 38.3556C29.8203 38.2475 29.3472 38.0495 28.778 38.1961C28.8994 37.6901 29.1097 37.12 29.3381 36.5003L29.4342 36.2399C29.5429 35.9466 29.6771 35.6441 29.8203 35.3232C30.5925 33.5852 31.6512 31.2055 30.5019 25.8301C30.0723 23.817 28.6347 22.8343 26.4558 23.0617C25.1506 23.1992 23.9542 23.7327 23.3578 24.037C23.2381 24.0982 23.1197 24.1618 23.0025 24.2277C23.1692 22.2 23.7983 18.4086 26.1494 16.0105C26.3239 15.8325 26.5072 15.6637 26.6987 15.5045C26.794 15.4861 26.8839 15.4459 26.9616 15.3872C28.3248 14.3422 30.0342 13.8288 32.0409 13.86C32.7842 13.8728 33.4948 13.9223 34.1691 14.0085C37.6859 14.6593 40.0498 16.6614 41.4855 18.3774C42.9611 20.1411 43.7605 21.9176 44.0795 22.8765C41.6812 22.6308 40.0498 23.1093 39.2213 24.3065C37.4231 26.9062 40.2075 31.9553 41.5453 34.3827C41.79 34.8264 42.0021 35.2114 42.0692 35.3727C42.5042 36.4416 43.068 37.1548 43.4795 37.6755C43.6064 37.835 43.7297 37.989 43.8221 38.1246C43.097 38.3373 41.7918 38.8268 41.9097 41.2725C41.8861 41.5585 41.8317 42.0921 41.7574 42.7667C41.674 43.1481 41.6305 43.6101 41.5761 44.1711H41.5779ZM43.1913 41.1992C43.1188 39.6738 43.6807 39.5143 44.2735 39.3475C44.3557 39.3245 44.4373 39.2994 44.5182 39.2723C44.5947 39.341 44.6759 39.4041 44.7611 39.4612C45.7944 40.1505 47.6308 40.233 50.2121 39.7068C49.846 40.0313 49.2713 40.4402 48.4846 40.8087C47.7413 41.157 46.4978 41.4192 45.3177 41.476C44.0125 41.5384 43.349 41.3294 43.1913 41.1992ZM44.2246 24.202C44.2137 24.8437 44.1267 25.4285 44.0342 26.0372C43.9345 26.6936 43.8312 27.3719 43.804 28.1951C43.7786 28.9945 43.8765 29.8268 43.9726 30.6335C44.1666 32.2597 44.3641 33.9336 43.5973 35.5854C43.4697 35.3573 43.3559 35.1216 43.2565 34.8796C43.0774 34.4936 42.8809 34.1161 42.6674 33.7484C41.5507 31.7243 38.9385 26.9832 40.2745 25.0509C40.9634 24.0554 42.7073 24.0132 44.2246 24.202ZM44.6379 37.0594C44.5869 36.9938 44.5355 36.9284 44.4838 36.8633L44.4203 36.7826C45.7364 34.5826 45.479 32.4064 45.2488 30.4776C45.1545 29.6856 45.0675 28.9376 45.0893 28.2373C45.1128 27.4911 45.2089 26.8531 45.3032 26.2352C45.4192 25.4744 45.5388 24.6879 45.5044 23.7602C45.5313 23.6462 45.5386 23.5284 45.5261 23.4118C45.4427 22.5208 44.4385 19.8588 42.39 17.4479C41.055 15.8567 39.3918 14.5801 37.5173 13.7078C38.7248 13.4581 39.9559 13.3437 41.1882 13.3668C44.908 13.4511 47.8501 14.8592 49.933 17.5524C49.9774 17.6107 50.018 17.672 50.0544 17.7357C51.3651 20.2218 49.5541 29.2401 44.6397 37.0594H44.6379ZM28.6565 25.8466C28.6112 26.1766 28.0945 26.6221 27.5308 26.6221C27.4816 26.6219 27.4326 26.6182 27.3839 26.6111C27.0158 26.5458 26.6871 26.3388 26.4667 26.0336C26.3833 25.9236 26.2491 25.7072 26.2745 25.511C26.2829 25.4563 26.3021 25.4039 26.3311 25.357C26.3601 25.31 26.3982 25.2695 26.4431 25.2379C26.657 25.0747 27.0812 25.0142 27.5489 25.0802C28.1217 25.1609 28.7127 25.434 28.6547 25.8466H28.6565ZM43.0318 25.093C43.0517 25.2397 42.9429 25.4597 42.7544 25.6614C42.5592 25.8764 42.2992 26.0202 42.0148 26.0702C41.9697 26.0764 41.9243 26.0795 41.8788 26.0794C41.3477 26.0794 40.8981 25.6504 40.8637 25.3992C40.8202 25.0747 41.3423 24.8309 41.8788 24.7539C42.419 24.6769 42.9883 24.7704 43.0318 25.093Z"/>
</mask>
<path d="M51.956 38.9918C51.9309 38.9144 51.8962 38.8405 51.8527 38.7718C51.6007 38.2915 50.988 38.1466 50.0272 38.3483C47.0289 38.9717 45.8687 38.5866 45.4482 38.3116C47.8809 34.5569 49.8804 30.0211 50.9608 25.7897C51.4539 23.8647 52.4074 19.3308 51.182 17.1179C51.1043 16.9657 51.0133 16.8209 50.9101 16.6852C48.5698 13.6675 45.14 12.0449 40.9888 12.0009C38.2787 11.9716 35.9674 12.6353 35.3402 12.8791C35.0298 12.8203 34.7179 12.7702 34.4048 12.7288C33.6196 12.5855 32.8242 12.5076 32.0264 12.496C29.8837 12.4611 28.0329 12.98 26.4975 14.036C24.9458 13.4475 17.8198 11.0201 13.4093 14.1808C10.9421 15.9464 9.80731 19.0998 10.0267 23.5567C10.101 25.0564 10.9457 29.6691 12.2799 34.0876C13.1138 36.8486 13.9803 39.0413 14.8776 40.6547C15.8801 42.4771 16.9188 43.5752 17.9847 43.9364C18.7968 44.2078 20.0386 44.1986 21.3528 42.5999C22.4929 41.2208 23.6686 39.8722 24.8787 38.5555C25.6672 38.9863 26.5211 39.2192 27.3984 39.2467C27.3983 39.2491 27.3983 39.2516 27.3984 39.254C27.2459 39.4377 27.0966 39.6241 26.9507 39.8132C26.3362 40.6015 26.2074 40.7665 24.2315 41.179C23.6696 41.2964 22.1758 41.6062 22.1541 42.6659C22.1499 42.8777 22.2073 43.0862 22.3191 43.2654C22.7306 44.0409 23.9904 44.3838 24.159 44.4259C26.5791 45.0364 28.7 44.5946 30.2717 43.1811C30.2409 47.2713 30.4113 51.2809 30.8971 52.5093C31.2977 53.5231 32.2784 56 35.3746 56C35.8278 56 36.3281 55.945 36.8774 55.8277C40.1078 55.1273 41.5108 53.6826 42.0529 50.4999C42.3248 48.9049 42.7816 45.2289 43.0299 42.9812C43.0608 42.8529 43.0952 42.7612 43.1333 42.7319C43.1333 42.7319 43.2602 42.6439 43.9073 42.7869C43.9336 42.7928 43.9603 42.7971 43.9871 42.7997L44.4475 42.8401L44.4747 42.8419C46.0101 42.9134 47.9389 42.5816 49.0629 42.0535C50.2303 41.5035 52.3367 40.1597 51.9542 38.9918H51.956ZM13.5434 33.7722C12.1947 29.308 11.408 24.8162 11.3464 23.5585C11.1488 19.5764 12.1023 16.8062 14.1779 15.3212C17.508 12.9396 22.9517 14.3312 25.2503 15.0828L25.2322 15.1012C21.5649 18.8449 21.652 25.247 21.6646 25.6394C21.6646 25.7897 21.6755 26.0042 21.6936 26.2994C21.7553 27.3738 21.8749 29.3795 21.5595 31.6492C21.2695 33.7575 21.9112 35.8219 23.3233 37.3125C23.4683 37.4665 23.6224 37.6113 23.7801 37.747C23.1511 38.4271 21.7861 39.9342 20.3304 41.7034C19.3008 42.9537 18.5902 42.7136 18.3582 42.6347C17.6475 42.3964 16.8844 41.5585 16.1121 40.211C15.242 38.6728 14.3664 36.4856 13.5471 33.7722H13.5434ZM24.4327 43.1004C24.1575 43.0303 23.8938 42.9204 23.6496 42.7741C23.811 42.7026 24.0793 42.6091 24.5252 42.5174C26.8528 42.0315 27.2117 41.6905 27.9967 40.684C28.1761 40.4512 28.3791 40.189 28.6619 39.8718C28.7229 39.8029 28.7686 39.7217 28.7961 39.6335C29.1043 39.3567 29.2892 39.4318 29.5864 39.5565C29.8692 39.6757 30.1448 40.0332 30.2572 40.4273C30.3116 40.6144 30.3696 40.9682 30.1756 41.2432C28.5369 43.5642 26.1476 43.5349 24.4327 43.1004ZM28.2287 35.7889L28.1344 36.0456C27.8933 36.7001 27.6685 37.3088 27.529 37.8863C26.3198 37.8826 25.1415 37.3583 24.2478 36.4141C23.1094 35.2132 22.5928 33.543 22.8284 31.8307C23.1602 29.4326 23.0387 27.3444 22.9735 26.2224L22.9499 25.8191C23.4865 25.3387 25.97 23.993 27.741 24.4037C28.5495 24.5907 29.0426 25.148 29.2456 26.1051C30.3061 31.0625 29.387 33.1269 28.6474 34.7879C28.4974 35.1167 28.3583 35.4506 28.2305 35.7889H28.2287ZM41.5779 44.1711C41.5471 44.4956 41.5127 44.8604 41.4655 45.2638L41.2009 46.0668C41.1799 46.1307 41.1689 46.1975 41.1682 46.2648C41.1574 47.1357 41.0703 47.4547 40.9598 47.8598C40.8437 48.2797 40.715 48.7545 40.6335 49.7977C40.4341 52.3901 39.0419 53.8806 36.252 54.4838C33.5057 55.0796 33.018 53.5744 32.5902 52.2453C32.5456 52.1057 32.4984 51.9669 32.4488 51.8291C32.0591 50.7547 32.1044 49.2404 32.1642 47.1448C32.1932 46.1163 32.1189 43.6596 31.566 42.2937C31.5732 41.7565 31.5841 41.2102 31.6004 40.6584C31.6019 40.5882 31.5921 40.5182 31.5714 40.4512C31.5538 40.3223 31.5272 40.1949 31.4917 40.0698C31.2705 39.2852 30.7303 38.6288 30.0777 38.3556C29.8203 38.2475 29.3472 38.0495 28.778 38.1961C28.8994 37.6901 29.1097 37.12 29.3381 36.5003L29.4342 36.2399C29.5429 35.9466 29.6771 35.6441 29.8203 35.3232C30.5925 33.5852 31.6512 31.2055 30.5019 25.8301C30.0723 23.817 28.6347 22.8343 26.4558 23.0617C25.1506 23.1992 23.9542 23.7327 23.3578 24.037C23.2381 24.0982 23.1197 24.1618 23.0025 24.2277C23.1692 22.2 23.7983 18.4086 26.1494 16.0105C26.3239 15.8325 26.5072 15.6637 26.6987 15.5045C26.794 15.4861 26.8839 15.4459 26.9616 15.3872C28.3248 14.3422 30.0342 13.8288 32.0409 13.86C32.7842 13.8728 33.4948 13.9223 34.1691 14.0085C37.6859 14.6593 40.0498 16.6614 41.4855 18.3774C42.9611 20.1411 43.7605 21.9176 44.0795 22.8765C41.6812 22.6308 40.0498 23.1093 39.2213 24.3065C37.4231 26.9062 40.2075 31.9553 41.5453 34.3827C41.79 34.8264 42.0021 35.2114 42.0692 35.3727C42.5042 36.4416 43.068 37.1548 43.4795 37.6755C43.6064 37.835 43.7297 37.989 43.8221 38.1246C43.097 38.3373 41.7918 38.8268 41.9097 41.2725C41.8861 41.5585 41.8317 42.0921 41.7574 42.7667C41.674 43.1481 41.6305 43.6101 41.5761 44.1711H41.5779ZM43.1913 41.1992C43.1188 39.6738 43.6807 39.5143 44.2735 39.3475C44.3557 39.3245 44.4373 39.2994 44.5182 39.2723C44.5947 39.341 44.6759 39.4041 44.7611 39.4612C45.7944 40.1505 47.6308 40.233 50.2121 39.7068C49.846 40.0313 49.2713 40.4402 48.4846 40.8087C47.7413 41.157 46.4978 41.4192 45.3177 41.476C44.0125 41.5384 43.349 41.3294 43.1913 41.1992ZM44.2246 24.202C44.2137 24.8437 44.1267 25.4285 44.0342 26.0372C43.9345 26.6936 43.8312 27.3719 43.804 28.1951C43.7786 28.9945 43.8765 29.8268 43.9726 30.6335C44.1666 32.2597 44.3641 33.9336 43.5973 35.5854C43.4697 35.3573 43.3559 35.1216 43.2565 34.8796C43.0774 34.4936 42.8809 34.1161 42.6674 33.7484C41.5507 31.7243 38.9385 26.9832 40.2745 25.0509C40.9634 24.0554 42.7073 24.0132 44.2246 24.202ZM44.6379 37.0594C44.5869 36.9938 44.5355 36.9284 44.4838 36.8633L44.4203 36.7826C45.7364 34.5826 45.479 32.4064 45.2488 30.4776C45.1545 29.6856 45.0675 28.9376 45.0893 28.2373C45.1128 27.4911 45.2089 26.8531 45.3032 26.2352C45.4192 25.4744 45.5388 24.6879 45.5044 23.7602C45.5313 23.6462 45.5386 23.5284 45.5261 23.4118C45.4427 22.5208 44.4385 19.8588 42.39 17.4479C41.055 15.8567 39.3918 14.5801 37.5173 13.7078C38.7248 13.4581 39.9559 13.3437 41.1882 13.3668C44.908 13.4511 47.8501 14.8592 49.933 17.5524C49.9774 17.6107 50.018 17.672 50.0544 17.7357C51.3651 20.2218 49.5541 29.2401 44.6397 37.0594H44.6379ZM28.6565 25.8466C28.6112 26.1766 28.0945 26.6221 27.5308 26.6221C27.4816 26.6219 27.4326 26.6182 27.3839 26.6111C27.0158 26.5458 26.6871 26.3388 26.4667 26.0336C26.3833 25.9236 26.2491 25.7072 26.2745 25.511C26.2829 25.4563 26.3021 25.4039 26.3311 25.357C26.3601 25.31 26.3982 25.2695 26.4431 25.2379C26.657 25.0747 27.0812 25.0142 27.5489 25.0802C28.1217 25.1609 28.7127 25.434 28.6547 25.8466H28.6565ZM43.0318 25.093C43.0517 25.2397 42.9429 25.4597 42.7544 25.6614C42.5592 25.8764 42.2992 26.0202 42.0148 26.0702C41.9697 26.0764 41.9243 26.0795 41.8788 26.0794C41.3477 26.0794 40.8981 25.6504 40.8637 25.3992C40.8202 25.0747 41.3423 24.8309 41.8788 24.7539C42.419 24.6769 42.9883 24.7704 43.0318 25.093Z" fill="#2F5B8B" stroke="#2F5B8B" stroke-width="18" mask="url(#path-2-inside-1_301_7)"/>
</svg>
