<svg width="64" height="64" viewBox="0 0 64 64" fill="none" xmlns="http://www.w3.org/2000/svg">
<rect width="64" height="64" rx="12" fill="#00BEF2"/>
<rect x="4" y="4" width="56" height="56" rx="12" fill="#001C24"/>
<path d="M19.7188 34.9844V43H15.0312V20.25H23.9062C25.6146 20.25 27.1146 20.5625 28.4062 21.1875C29.7083 21.8125 30.7083 22.7031 31.4062 23.8594C32.1042 25.0052 32.4531 26.3125 32.4531 27.7812C32.4531 30.0104 31.6875 31.7708 30.1562 33.0625C28.6354 34.3438 26.526 34.9844 23.8281 34.9844H19.7188ZM19.7188 31.1875H23.9062C25.1458 31.1875 26.0885 30.8958 26.7344 30.3125C27.3906 29.7292 27.7188 28.8958 27.7188 27.8125C27.7188 26.6979 27.3906 25.7969 26.7344 25.1094C26.0781 24.4219 25.1719 24.0677 24.0156 24.0469H19.7188V31.1875ZM44.5469 38.3281C44.5469 37.776 44.2708 37.3438 43.7188 37.0312C43.1771 36.7083 42.3021 36.4219 41.0938 36.1719C37.0729 35.3281 35.0625 33.6198 35.0625 31.0469C35.0625 29.5469 35.6823 28.2969 36.9219 27.2969C38.1719 26.2865 39.8021 25.7812 41.8125 25.7812C43.9583 25.7812 45.6719 26.2865 46.9531 27.2969C48.2448 28.3073 48.8906 29.6198 48.8906 31.2344H44.375C44.375 30.5885 44.1667 30.0573 43.75 29.6406C43.3333 29.2135 42.6823 29 41.7969 29C41.0365 29 40.4479 29.1719 40.0312 29.5156C39.6146 29.8594 39.4062 30.2969 39.4062 30.8281C39.4062 31.3281 39.6406 31.7344 40.1094 32.0469C40.5885 32.349 41.3906 32.6146 42.5156 32.8438C43.6406 33.0625 44.5885 33.3125 45.3594 33.5938C47.7448 34.4688 48.9375 35.9844 48.9375 38.1406C48.9375 39.6823 48.276 40.9323 46.9531 41.8906C45.6302 42.8385 43.9219 43.3125 41.8281 43.3125C40.4115 43.3125 39.151 43.0625 38.0469 42.5625C36.9531 42.0521 36.0938 41.3594 35.4688 40.4844C34.8438 39.599 34.5312 38.6458 34.5312 37.625H38.8125C38.8542 38.4271 39.151 39.0417 39.7031 39.4688C40.2552 39.8958 40.9948 40.1094 41.9219 40.1094C42.7865 40.1094 43.4375 39.9479 43.875 39.625C44.3229 39.2917 44.5469 38.8594 44.5469 38.3281Z" fill="white"/>
</svg>
