<svg width="65" height="65" viewBox="0 0 65 65" fill="none" xmlns="http://www.w3.org/2000/svg">
<path d="M0.5 12C0.5 5.64873 5.64873 0.5 12 0.5H53C59.3513 0.5 64.5 5.64873 64.5 12V53C64.5 59.3513 59.3513 64.5 53 64.5H12C5.64873 64.5 0.5 59.3513 0.5 53V12Z" stroke="#0046CC"/>
<path d="M50.9904 10.9992C49.0187 9.23593 46.6344 9.94508 44.2787 12.0419C43.9155 12.3682 43.5668 12.7103 43.2336 13.0673C39.2042 17.3548 35.4653 25.2954 34.3037 31.3597C34.7565 32.2797 35.11 33.4546 35.343 34.3516C35.4599 34.7977 35.5643 35.247 35.6564 35.699C35.6564 35.699 35.6201 35.5629 35.473 35.1316L35.3774 34.8518C35.3577 34.8002 35.3367 34.749 35.3144 34.6985C35.0507 34.0852 34.3247 32.7914 34.0037 32.2279C33.7305 33.0387 33.4879 33.7957 33.2854 34.4819C34.2101 36.1762 34.7718 39.0818 34.7718 39.0818C34.7718 39.0818 34.724 38.8921 34.4909 38.2347C34.2865 37.6539 33.2605 35.8504 33.016 35.4287C32.6014 36.9697 32.4352 38.0085 32.5842 38.2615C32.8746 38.7522 33.1497 39.5993 33.3905 40.5346C33.9369 42.6429 34.3171 45.2112 34.3171 45.2112L34.3496 45.6406C34.2778 47.3967 34.3135 49.1557 34.4565 50.9075C34.638 53.104 34.9781 54.9899 35.4118 56L35.708 55.839C35.0698 53.8495 34.81 51.241 34.9246 48.2357C35.0966 43.6396 36.1512 38.0967 38.098 32.3199C41.3899 23.5992 45.9561 16.6016 50.1345 13.259C46.3268 16.7089 41.1702 27.8829 39.6265 32.019C37.8993 36.6496 36.6747 40.9965 35.9372 45.1614C37.2096 41.2572 41.3269 39.5802 41.3269 39.5802C41.3269 39.5802 43.3463 37.0809 45.7058 33.5121C44.292 33.836 41.9707 34.3899 41.1931 34.7176C40.0468 35.1987 39.7373 35.3635 39.7373 35.3635C39.7373 35.3635 43.4533 33.0942 46.6401 32.0669C51.0229 25.1421 55.7992 15.304 50.9904 10.9992ZM15.5058 12.04C14.5768 12.0435 13.6868 12.4154 13.0301 13.0747C12.3733 13.7339 12.003 14.6269 12 15.5589V47.3905C12.003 48.3221 12.3734 49.2147 13.0303 49.8733C13.6872 50.532 14.5771 50.903 15.5058 50.9056H33.4994C33.3645 49.1796 33.3313 47.4471 33.4 45.7172C33.3886 45.5984 33.379 45.447 33.3694 45.3339C33.1364 43.8018 32.8348 42.2811 32.4658 40.7761C32.2346 39.8753 31.9404 39.055 31.7608 38.7502C31.5391 38.3727 31.5735 38.1561 31.5754 37.9223C31.5754 37.6923 31.6041 37.4527 31.6461 37.1824C31.7593 36.5073 31.9086 35.8387 32.0932 35.1796L32.5078 35.1259C32.4753 35.0588 32.481 35.0013 32.4486 34.94L32.3702 34.2097C32.599 33.4423 32.8423 32.6794 33.1001 31.9213L33.4822 31.8848C33.4669 31.8542 33.4631 31.812 33.4478 31.7833L33.3656 31.1776C34.5693 24.891 38.3082 16.9121 42.5362 12.4118C42.6623 12.2795 42.7903 12.1665 42.9145 12.04H15.5058Z" fill="#0046CC"/>
</svg>
