<svg width="72" height="72" viewBox="0 0 72 72" fill="none" xmlns="http://www.w3.org/2000/svg">
<path d="M5 17H67V55H5V17Z" fill="white"/>
<path d="M5 17H67V22H5V17Z" fill="#D22F27"/>
<path d="M5 26H67V30H5V26Z" fill="#D22F27"/>
<path d="M5 34H67V38H5V34Z" fill="#D22F27"/>
<path d="M5 17H37V38H5V17Z" fill="#1E50A0"/>
<path d="M5 42H67V46H5V42Z" fill="#D22F27"/>
<path d="M9 23.75C9.9665 23.75 10.75 22.9665 10.75 22C10.75 21.0335 9.9665 20.25 9 20.25C8.0335 20.25 7.25 21.0335 7.25 22C7.25 22.9665 8.0335 23.75 9 23.75Z" fill="white"/>
<path d="M17 23.75C17.9665 23.75 18.75 22.9665 18.75 22C18.75 21.0335 17.9665 20.25 17 20.25C16.0335 20.25 15.25 21.0335 15.25 22C15.25 22.9665 16.0335 23.75 17 23.75Z" fill="white"/>
<path d="M25 23.75C25.9665 23.75 26.75 22.9665 26.75 22C26.75 21.0335 25.9665 20.25 25 20.25C24.0335 20.25 23.25 21.0335 23.25 22C23.25 22.9665 24.0335 23.75 25 23.75Z" fill="white"/>
<path d="M33 23.75C33.9665 23.75 34.75 22.9665 34.75 22C34.75 21.0335 33.9665 20.25 33 20.25C32.0335 20.25 31.25 21.0335 31.25 22C31.25 22.9665 32.0335 23.75 33 23.75Z" fill="white"/>
<path d="M29 27.75C29.9665 27.75 30.75 26.9665 30.75 26C30.75 25.0335 29.9665 24.25 29 24.25C28.0335 24.25 27.25 25.0335 27.25 26C27.25 26.9665 28.0335 27.75 29 27.75Z" fill="white"/>
<path d="M21 27.75C21.9665 27.75 22.75 26.9665 22.75 26C22.75 25.0335 21.9665 24.25 21 24.25C20.0335 24.25 19.25 25.0335 19.25 26C19.25 26.9665 20.0335 27.75 21 27.75Z" fill="white"/>
<path d="M13 27.75C13.9665 27.75 14.75 26.9665 14.75 26C14.75 25.0335 13.9665 24.25 13 24.25C12.0335 24.25 11.25 25.0335 11.25 26C11.25 26.9665 12.0335 27.75 13 27.75Z" fill="white"/>
<path d="M9 31.75C9.9665 31.75 10.75 30.9665 10.75 30C10.75 29.0335 9.9665 28.25 9 28.25C8.0335 28.25 7.25 29.0335 7.25 30C7.25 30.9665 8.0335 31.75 9 31.75Z" fill="white"/>
<path d="M17 31.75C17.9665 31.75 18.75 30.9665 18.75 30C18.75 29.0335 17.9665 28.25 17 28.25C16.0335 28.25 15.25 29.0335 15.25 30C15.25 30.9665 16.0335 31.75 17 31.75Z" fill="white"/>
<path d="M25 31.75C25.9665 31.75 26.75 30.9665 26.75 30C26.75 29.0335 25.9665 28.25 25 28.25C24.0335 28.25 23.25 29.0335 23.25 30C23.25 30.9665 24.0335 31.75 25 31.75Z" fill="white"/>
<path d="M33 31.75C33.9665 31.75 34.75 30.9665 34.75 30C34.75 29.0335 33.9665 28.25 33 28.25C32.0335 28.25 31.25 29.0335 31.25 30C31.25 30.9665 32.0335 31.75 33 31.75Z" fill="white"/>
<path d="M29 35.75C29.9665 35.75 30.75 34.9665 30.75 34C30.75 33.0335 29.9665 32.25 29 32.25C28.0335 32.25 27.25 33.0335 27.25 34C27.25 34.9665 28.0335 35.75 29 35.75Z" fill="white"/>
<path d="M21 35.75C21.9665 35.75 22.75 34.9665 22.75 34C22.75 33.0335 21.9665 32.25 21 32.25C20.0335 32.25 19.25 33.0335 19.25 34C19.25 34.9665 20.0335 35.75 21 35.75Z" fill="white"/>
<path d="M13 35.75C13.9665 35.75 14.75 34.9665 14.75 34C14.75 33.0335 13.9665 32.25 13 32.25C12.0335 32.25 11.25 33.0335 11.25 34C11.25 34.9665 12.0335 35.75 13 35.75Z" fill="white"/>
<path d="M5 50H67V55H5V50Z" fill="#D22F27"/>
<path d="M5 17H67V55H5V17Z" stroke="black" stroke-width="2" stroke-linecap="round" stroke-linejoin="round"/>
</svg>
