<svg width="67" height="65" viewBox="0 0 67 65" fill="none" xmlns="http://www.w3.org/2000/svg">
<rect width="67" height="65" rx="12" fill="#7737FF"/>
<path d="M56.52 14.5771L43.1737 16.9968L45.4929 9L26.9721 12.6097L26.6836 17.4561L10.4572 14.5713C9.33963 14.5066 8.68844 15.3048 9.14989 16.4132L32.6319 57.3724C33.1373 58.1931 34.301 58.2251 34.8112 57.3724L57.8367 16.4092C58.3562 15.4832 57.5602 14.3977 56.52 14.5771ZM33.7168 56.2495L10.7194 16.1352L26.5943 18.9576L25.8459 31.5296L32.3532 30.0359L30.5387 38.8735L35.4817 37.3798L33.0287 49.1892C32.9065 49.9615 33.9178 50.3723 34.4181 49.267L48.8716 20.576L41.7386 21.9453L42.7091 18.5993L56.2668 16.1413L33.7168 56.2495Z" fill="white"/>
</svg>
